<svg width="226" height="161" viewBox="0 0 226 161" fill="none" xmlns="http://www.w3.org/2000/svg">
<g clip-path="url(#clip0_605_41931)">
<path d="M223.757 130.549C216.363 147.057 185.839 145.256 148.611 148.282C49.7183 156.364 10.6519 169.5 0.847061 151.155C-0.187051 149.24 0.693964 140.507 2.49389 123.08C2.91529 119.136 3.25999 115.65 3.71959 111.705C4.3708 106.19 5.1751 99.2576 6.59212 90.6018C7.74114 83.631 8.04764 83.0947 8.69855 78.0776C9.46466 72.3325 9.77117 67.8514 9.92427 64.8639C11.3413 40.5049 9.54136 29.2446 14.2138 23.0399C14.7501 22.312 15.4013 21.6611 16.1289 21.0866C18.0441 19.5543 19.8825 19.0183 23.1379 18.214C50.5611 11.4731 75.15 11.8945 112.301 7.91112L112.493 7.87292C115.327 7.56642 141.18 4.80879 176.684 2.12785C198.363 0.480743 204.298 0.289437 208.015 1.82136C208.779 2.12786 209.316 2.47256 210.121 2.93217C211.155 3.58308 212.111 4.34919 212.993 5.23019C217.474 9.90265 220.002 18.9416 222.493 42.5346C223.564 52.6844 224.176 61.0722 224.561 67.7365C225.21 79.1881 225.365 87.8824 225.403 90.4484C225.71 114.042 225.862 125.838 223.757 130.549Z" fill="#FFF200"/>
<path d="M213.03 5.26841C196.943 22.925 179.901 41.1558 161.861 59.9232C150.408 71.8344 134.782 87.6526 116.053 85.9291C109.351 85.3164 105.291 82.7118 92.5369 74.7836C43.5125 44.3348 50.7513 49.8883 40.9462 42.9942C33.018 37.4408 24.0557 30.8147 14.2891 23.0781C14.8254 22.3505 15.4766 21.6993 16.2042 21.1248C18.1193 19.5929 19.9577 19.0566 23.2132 18.2522C50.6364 11.5113 75.2252 11.9327 112.377 7.94934L112.568 7.91113C115.402 7.60463 141.256 4.847 176.761 2.16607C198.437 0.519247 204.375 0.327653 208.089 1.85957C208.856 2.16607 209.393 2.51078 210.197 2.97038C211.191 3.62159 212.151 4.3492 213.03 5.26841Z" fill="#FF7300"/>
<path d="M178.023 103.049C177.946 103.049 177.868 103.049 177.753 103.049C176.452 103.049 173.464 102.973 170.477 101.173C170.21 101.02 169.94 100.828 169.71 100.675C169.328 100.866 168.791 101.135 168.101 101.364C168.101 101.364 167.719 101.479 167.145 101.632C167.145 101.632 166.073 101.862 165.039 101.9C163.62 101.939 157.875 101.096 157.456 98.3384C157.186 96.6149 159.064 94.5084 160.288 94.6616C161.018 94.7383 160.94 95.5808 162.397 96.8065C162.971 97.2661 164.465 98.53 166.303 98.3384C166.685 98.3002 166.993 98.2235 167.182 98.1471C165.996 96.9214 164.157 94.5852 163.505 91.253C163.391 90.64 162.012 83.4397 166.456 80.1458C168.831 78.3841 171.626 78.6139 171.856 78.6521C172.43 78.7288 174.614 78.9968 176.3 80.6821C179.057 83.4012 178.405 87.6526 178.175 89.223C177.408 94.3553 173.617 97.649 172.775 98.3769C172.698 98.4533 172.66 98.4918 172.623 98.53C173.809 99.3343 175.763 100.33 178.29 100.598C184.992 101.211 189.628 95.6957 190.125 95.083C189.243 94.2787 187.864 92.8231 187.06 90.6018C185.184 85.3546 187.675 78.8437 192.041 76.3541C192.845 75.8945 194.684 74.937 196.597 75.4348C199.625 76.2774 200.466 79.8011 200.274 82.5205C199.929 86.8868 198.091 91.2145 195.066 94.7765C197.364 96.1938 199.24 96.4618 200.659 96.2702C203.454 95.9255 205.025 93.934 206.404 94.7001C207.208 95.1597 207.59 96.3851 207.36 97.2661C207.016 98.53 205.444 98.9896 204.45 99.2961C202.879 99.7557 201.463 99.679 199.929 99.4492C198.206 99.1812 195.64 98.6067 192.731 97.1894C188.479 100.943 183.154 103.049 178.023 103.049ZM171.856 81.5246C170.362 81.5246 169.365 82.482 169.021 82.7885C167.412 84.2822 166.838 87.0399 167.412 90.6018C167.605 91.789 168.216 94.3168 169.94 96.3851C170.095 96.2702 170.285 96.1171 170.514 95.8873C171.014 95.4277 173.502 93.0529 174.536 88.6485C175.073 86.3123 175.648 83.8608 174.269 82.5205C173.35 81.5246 171.971 81.5246 171.856 81.5246ZM195.103 79.1117C194.914 79.035 193.687 78.5754 192.575 79.1117C190.088 80.2989 189.818 85.5462 190.852 89.223C191.312 90.8316 191.964 92.0573 192.386 92.7467C194.377 91.1763 195.526 89.5295 196.137 88.4569C197.134 86.7334 198.246 84.78 197.709 82.5205C197.556 81.8311 196.942 79.8011 195.103 79.1117Z" fill="white"/>
<path d="M155.961 119.557C155.002 118.561 155.042 116.57 155.846 115.306C156.803 113.85 158.719 113.62 162.663 113.352C169.749 112.893 174.116 112.931 178.901 112.509C179.936 112.433 181.469 112.241 184.494 111.859C201.077 109.752 206.633 108.297 208.356 110.901C208.891 111.705 209.083 112.931 208.623 113.773C207.742 115.421 204.639 115.306 203.568 115.267C199.124 115.152 192.46 116.186 179.056 118.178C172.622 119.136 166.032 118.829 159.676 120.093C159.023 120.208 156.995 120.629 155.961 119.557Z" fill="#4E02C6"/>
<path d="M167.641 127.83C167.182 127.179 167.144 126.183 167.526 125.493C168.178 124.229 169.902 123.961 170.784 123.808C176.529 122.927 184.072 122.353 186.37 122.123C189.895 121.816 191.771 121.625 194.453 121.166C199.124 120.323 201.73 119.404 203.261 120.859C203.913 121.472 204.41 122.621 204.105 123.502C203.531 125.149 200.428 125.187 194.528 125.762C192.805 125.953 189.013 126.336 185.261 126.911C183.116 127.255 179.324 127.715 171.663 128.596C170.476 128.711 168.486 128.94 167.641 127.83Z" fill="#4E02C6"/>
</g>
<defs>
<clipPath id="clip0_605_41931">
<rect width="225.494" height="160" fill="white" transform="translate(0.25 0.5)"/>
</clipPath>
</defs>
</svg>
