<svg width="262" height="240" viewBox="0 0 262 240" fill="none" xmlns="http://www.w3.org/2000/svg">
<g clip-path="url(#clip0_1558_47355)">
<path d="M220.346 37.9346L214.413 29.7637C204.505 41.4497 193.642 54.5967 187.616 62.0832C180.632 70.7109 173.829 78.6994 169.583 83.5839C168.899 83.4011 168.214 83.2186 167.529 83.0817C163.469 82.3514 161.141 83.1272 136.033 94.9505C109.1 107.595 102.115 111.201 99.194 115.995C97.5506 114.351 95.6789 112.754 93.5791 111.384C83.0797 104.537 72.5803 115.493 68.9286 124.622C68.4719 125.764 68.1525 126.905 67.9241 128C60.4835 130.648 49.5732 137.678 31.4962 145.164C27.2508 146.899 23.6902 148.269 20.6318 149.364C27.9814 135.076 41.1739 109.376 51.6278 89.0159L46.6973 81.9406C42.9542 89.1529 38.7088 97.5981 33.7332 107.276C23.7816 126.722 15.3364 142.882 9.31074 154.249C7.07405 155.664 5.43068 157.307 4.06121 159.772C-0.138621 167.304 1.82452 175.567 4.06121 184.423C7.80432 199.304 13.9669 223.817 36.4722 232.355C49.0713 237.148 64.8658 236.097 77.5563 227.788C91.7074 218.568 96.8659 203.641 98.0984 194.009C99.3309 184.24 96.5006 175.202 90.7943 157.033C90.3835 155.755 87.9643 148.177 83.4906 138.774C80.4777 132.428 78.9258 129.233 77.5563 128.274C76.7346 127.726 75.913 127.316 74.9999 127.133C75.0454 126.722 75.1368 126.357 75.2738 125.992C77.0996 120.971 86.6859 120.514 92.1638 123.253C93.2594 123.801 94.1269 124.668 94.8572 125.672C94.9942 125.17 95.1766 124.668 95.3595 124.166C95.8614 122.842 96.455 121.701 97.4137 120.56C96.3636 125.216 97.3222 129.918 99.5134 135.624C100.791 139.002 102.526 142.699 104.489 146.99C111.428 162.055 122.018 184.97 146.03 192.183C150.64 193.553 165.841 197.889 181.635 189.901C183.737 188.85 198.616 181.044 204.005 163.881C208.203 150.551 204.142 139.595 198.983 125.535C194.645 113.666 188.804 97.8265 179.17 89.1529C187.113 79.0647 202.088 60.166 210.853 49.758C213.91 46.1973 217.104 42.1345 220.346 37.9346ZM77.0541 149.638C80.6602 157.216 82.5775 163.287 82.9428 164.337C87.5076 178.899 89.836 186.203 88.8315 194.054C87.8274 201.815 83.6731 213.775 72.3065 221.216C62.1268 227.88 49.4363 228.702 39.3022 224.868C21.2251 218.02 16.2495 198.346 13.2367 186.34C11.4564 179.219 9.85852 172.554 13.2367 166.528C16.432 160.731 21.4535 160.502 35.2396 154.796C54.0925 147.036 63.1769 139.823 69.1567 140.143C70.2981 140.189 71.3478 140.554 72.3065 141.239C72.8542 141.604 73.4479 142.425 74.1782 143.795C74.9084 145.164 75.8215 147.082 77.0541 149.638ZM189.489 128.137C193.642 139.458 196.884 148.269 193.505 158.95C189.167 172.737 177.208 178.99 175.52 179.858C162.829 186.294 150.595 182.825 146.897 181.684C127.588 175.886 119.097 157.444 113.528 145.393C110.743 139.413 108.597 134.756 107.822 130.602C107.639 129.598 107.502 128.594 107.502 127.635C107.456 125.809 107.73 124.074 108.415 122.294C110.287 117.364 113.984 115.264 138.863 103.578C159.039 94.083 160.911 93.4441 164.154 94.0375C177.893 96.548 184.74 115.264 189.489 128.137Z" fill="#FFD800"/>
<path d="M89.474 161.598C89.0632 160.32 86.644 152.742 82.1703 143.338C79.1574 136.993 77.6055 133.797 76.236 132.839C75.8707 132.565 75.5054 132.382 75.0946 132.2C72.9948 131.195 70.5753 131.332 67.6083 132.245C60.1673 134.574 49.1205 141.923 30.1303 149.729C12.9205 156.805 6.7579 157.124 2.7409 164.337C-1.45893 171.869 0.504205 180.131 2.7409 188.987C6.484 203.869 12.6466 228.383 35.1518 236.919C47.751 241.712 63.5455 240.661 76.236 232.355C90.3871 223.132 95.5456 208.206 96.7781 198.573C98.0106 188.805 95.1803 179.766 89.474 161.598ZM87.4198 198.619C86.4156 206.379 82.2617 218.34 70.8951 225.781C60.7151 232.444 48.0249 233.266 37.8908 229.431C19.8138 222.584 14.8378 202.91 11.825 190.904C10.0446 183.783 8.44715 177.119 11.825 171.093C15.0206 165.295 20.0418 165.067 33.8279 159.361C56.2873 150.094 64.9605 141.649 70.8951 145.803C72.0362 146.579 73.2232 149.135 75.6882 154.248C79.2944 161.826 81.2117 167.897 81.577 168.947C86.1418 183.464 88.4243 190.767 87.4198 198.619Z" fill="#8D41E5"/>
<path d="M196.296 131.469C190.407 115.446 181.827 92.1654 164.798 89.0156C160.737 88.2853 158.409 89.0615 133.302 100.884C114.585 109.695 105.501 114.123 100.708 117.592C97.6039 119.875 96.3259 121.746 95.4128 124.165C95.2303 124.668 95.0478 125.17 94.9109 125.672C92.7652 133.386 96.2803 141.01 101.804 152.924C108.743 167.989 119.333 190.904 143.344 198.117C147.955 199.486 163.154 203.823 178.951 195.834C181.05 194.785 195.933 186.979 201.318 169.814C205.519 156.485 201.455 145.529 196.296 131.469ZM190.773 164.884C186.435 178.67 174.477 184.925 172.789 185.792C160.097 192.228 147.864 188.759 144.166 187.618C124.856 181.82 116.366 163.378 110.797 151.327C107.099 143.293 104.497 137.678 104.771 132.428C104.817 131.013 105.136 129.598 105.638 128.183C105.912 127.452 106.232 126.767 106.688 126.083C109.107 122.385 114.996 119.372 136.086 109.466C156.263 99.9714 158.135 99.3322 161.374 99.9258C175.069 102.436 181.964 121.153 186.665 134.026C190.91 145.392 194.152 154.202 190.773 164.884Z" fill="#8D41E5"/>
<path d="M78.514 69.8434C73.9492 73.4954 68.9277 55.2356 67.1018 58.8876C66.4626 60.1657 59.8891 72.9477 51.6723 89.016L46.7422 81.9403C58.4741 59.2529 64.8648 48.6166 70.2971 49.7577C76.4142 51.0361 81.8466 67.1959 78.514 69.8434Z" fill="#009D6F"/>
<path d="M254.721 29.6723C250.613 25.1075 254.266 2.2829 246.504 7.30441C240.66 11.0931 230.344 25.0617 220.347 37.9347L214.414 29.7637C223.268 19.3099 231.395 10.0889 234.634 7.30441C241.482 1.36981 251.982 -4.10808 258.374 4.56547C264.763 13.2387 258.829 34.2371 254.721 29.6723Z" fill="#009D6F"/>
</g>
<defs>
<clipPath id="clip0_1558_47355">
<rect width="261.227" height="240" fill="white"/>
</clipPath>
</defs>
</svg>
