<svg width="24" height="24" viewBox="0 0 25 24" fill="none" xmlns="http://www.w3.org/2000/svg">
<path fill-rule="evenodd" clip-rule="evenodd" d="M3.69428 3.09467C5.02875 1.7602 7.02564 1.25 9.59961 1.25H15.5996C18.1736 1.25 20.1705 1.7602 21.5049 3.09467C22.8394 4.42914 23.3496 6.42603 23.3496 9V15C23.3496 17.574 22.8394 19.5709 21.5049 20.9053C20.1705 22.2398 18.1736 22.75 15.5996 22.75H9.59961C7.02564 22.75 5.02875 22.2398 3.69428 20.9053C2.35981 19.5709 1.84961 17.574 1.84961 15V9C1.84961 6.42603 2.35981 4.42914 3.69428 3.09467ZM4.75494 4.15533C3.83941 5.07086 3.34961 6.57397 3.34961 9V15C3.34961 17.426 3.83941 18.9291 4.75494 19.8447C5.67047 20.7602 7.17358 21.25 9.59961 21.25H15.5996C18.0256 21.25 19.5287 20.7602 20.4443 19.8447C21.3598 18.9291 21.8496 17.426 21.8496 15V9C21.8496 6.57397 21.3598 5.07086 20.4443 4.15533C19.5287 3.2398 18.0256 2.75 15.5996 2.75H9.59961C7.17358 2.75 5.67047 3.2398 4.75494 4.15533Z" fill="#3800B0"/>
<path fill-rule="evenodd" clip-rule="evenodd" d="M12.5996 1.25C13.0138 1.25 13.3496 1.58579 13.3496 2V22C13.3496 22.4142 13.0138 22.75 12.5996 22.75C12.1854 22.75 11.8496 22.4142 11.8496 22V2C11.8496 1.58579 12.1854 1.25 12.5996 1.25Z" fill="#3800B0"/>
<path fill-rule="evenodd" clip-rule="evenodd" d="M1.84961 9.5C1.84961 9.08579 2.1854 8.75 2.59961 8.75H12.5996C13.0138 8.75 13.3496 9.08579 13.3496 9.5C13.3496 9.91421 13.0138 10.25 12.5996 10.25H2.59961C2.1854 10.25 1.84961 9.91421 1.84961 9.5Z" fill="#3800B0"/>
<path fill-rule="evenodd" clip-rule="evenodd" d="M11.8496 14.5C11.8496 14.0858 12.1854 13.75 12.5996 13.75H22.5996C23.0138 13.75 23.3496 14.0858 23.3496 14.5C23.3496 14.9142 23.0138 15.25 22.5996 15.25H12.5996C12.1854 15.25 11.8496 14.9142 11.8496 14.5Z" fill="#3800B0"/>
</svg>
