<svg width="24" height="25" viewBox="0 0 24 25" fill="none" xmlns="http://www.w3.org/2000/svg">
<path fill-rule="evenodd" clip-rule="evenodd" d="M3.88534 6.16727C3.20538 6.79866 2.75 7.82313 2.75 9.43018V16.4302C2.75 18.0372 3.20538 19.0617 3.88534 19.6931C4.57535 20.3338 5.61497 20.6802 7 20.6802H17C18.385 20.6802 19.4246 20.3338 20.1147 19.6931C20.7946 19.0617 21.25 18.0372 21.25 16.4302V9.43018C21.25 7.82313 20.7946 6.79866 20.1147 6.16727C19.4246 5.52654 18.385 5.18018 17 5.18018H7C5.61497 5.18018 4.57535 5.52654 3.88534 6.16727ZM2.86466 5.06808C3.92465 4.08381 5.38503 3.68018 7 3.68018H17C18.615 3.68018 20.0754 4.08381 21.1353 5.06808C22.2054 6.0617 22.75 7.53723 22.75 9.43018V16.4302C22.75 18.3231 22.2054 19.7987 21.1353 20.7923C20.0754 21.7765 18.615 22.1802 17 22.1802H7C5.38503 22.1802 3.92465 21.7765 2.86466 20.7923C1.79462 19.7987 1.25 18.3231 1.25 16.4302V9.43018C1.25 7.53723 1.79462 6.0617 2.86466 5.06808Z" fill="#3800B0"/>
<path fill-rule="evenodd" clip-rule="evenodd" d="M17.586 9.46214C17.8445 9.78579 17.7917 10.2577 17.4681 10.5162L14.3372 13.017C13.0338 14.0546 10.9563 14.0546 9.65289 13.017L9.65104 13.0155L6.53105 10.5155C6.2078 10.2565 6.15573 9.78447 6.41474 9.46122C6.67375 9.13798 7.14576 9.08591 7.46901 9.34492L10.588 11.8441C11.3446 12.4457 12.6462 12.4456 13.4025 11.8437C13.4027 11.8436 13.4024 11.8438 13.4025 11.8437L16.532 9.34419C16.8556 9.08568 17.3275 9.13849 17.586 9.46214Z" fill="#3800B0"/>
</svg>
