<svg width="24" height="25" viewBox="0 0 24 25" fill="none" xmlns="http://www.w3.org/2000/svg">
<path d="M12 1.93018C5.92339 1.93018 1 6.85356 1 12.9302C1 19.0068 5.92339 23.9302 12 23.9302C18.0766 23.9302 23 19.0068 23 12.9302C23 6.85356 18.0766 1.93018 12 1.93018ZM17.3669 9.4705L15.5927 17.9866C15.4597 18.6076 15.1048 18.7407 14.5726 18.4745L11.8226 16.4342L10.4919 17.7205C10.3589 17.8536 10.2258 17.9866 9.95968 17.9866L10.1371 15.1923L15.2379 10.5794C15.4597 10.4019 15.1935 10.2689 14.8831 10.4463L8.58468 14.4382L5.87903 13.5955C5.30242 13.4181 5.30242 12.9745 6.0121 12.7084L16.6129 8.62776C17.1008 8.45034 17.5444 8.76082 17.3669 9.4705Z" fill="#3800B0"/>
</svg>
