<svg width="24" height="25" viewBox="0 0 24 25" fill="none" xmlns="http://www.w3.org/2000/svg">
<path d="M19.6607 5.17125C17.6473 3.10875 14.8973 1.93018 11.9509 1.93018C5.95982 1.93018 1.04911 6.84089 1.04911 12.832C1.04911 14.7962 1.58929 16.6623 2.52232 18.2829L1 23.9302L6.74554 22.457C8.36607 23.2918 10.1339 23.7829 11.9509 23.7829C17.9911 23.7829 23 18.8721 23 12.8811C23 9.93464 21.7232 7.23375 19.6607 5.17125ZM11.9509 21.9168C10.3304 21.9168 8.75893 21.4748 7.33482 20.64L7.04018 20.4436L3.60268 21.3766L4.53571 18.0373L4.29018 17.6936C3.40625 16.2204 2.91518 14.5507 2.91518 12.832C2.91518 7.87214 6.99107 3.79625 12 3.79625C14.4062 3.79625 16.6652 4.72928 18.3839 6.44803C20.1027 8.16678 21.1339 10.4257 21.1339 12.8811C21.1339 17.8409 16.9598 21.9168 11.9509 21.9168ZM16.9598 15.14C16.6652 14.9927 15.3393 14.3543 15.0938 14.2561C14.8482 14.1579 14.6518 14.1087 14.4554 14.4034C14.308 14.6489 13.7679 15.2873 13.6205 15.4837C13.4241 15.6311 13.2768 15.6802 13.0312 15.5329C11.4107 14.7471 10.3795 14.1087 9.29911 12.2918C9.00446 11.8007 9.59375 11.8498 10.0848 10.8186C10.183 10.6221 10.1339 10.4748 10.0848 10.3275C10.0357 10.1802 9.44643 8.85428 9.25 8.3141C9.00446 7.77393 8.80804 7.82303 8.61161 7.82303C8.46429 7.82303 8.26786 7.82303 8.12054 7.82303C7.92411 7.82303 7.62946 7.87214 7.38393 8.16678C7.13839 8.46143 6.45089 9.09982 6.45089 10.4257C6.45089 11.8007 7.38393 13.0775 7.53125 13.2739C7.67857 13.4212 9.44643 16.1712 12.1964 17.3498C13.9152 18.1355 14.6027 18.1846 15.4866 18.0373C15.9777 17.9882 17.058 17.3989 17.3036 16.7605C17.5491 16.1221 17.5491 15.582 17.4509 15.4837C17.4018 15.3364 17.2054 15.2873 16.9598 15.14Z" fill="#3800B0"/>
</svg>
