<svg width="90" height="45" viewBox="0 0 90 45" fill="none" xmlns="http://www.w3.org/2000/svg">
<path d="M0.880658 28.8058C0.880658 28.8058 -2.23962 44.6341 3.26654 44.6341C8.77271 44.6341 11.3422 37.4693 11.3422 37.4693C11.3422 37.4693 12.1869 44.9998 16.6286 44.9998C21.0702 44.9998 27.0169 38.8465 27.8978 19.9343C27.8978 19.9343 28.3871 14.7681 24.3705 14.7681C24.0076 14.7677 23.6591 14.909 23.3996 15.1615C23.1401 15.4141 22.9902 15.7578 22.9822 16.1191C22.8818 21.1232 22.1664 38.3799 17.2743 40.211C17.2743 40.211 12.9665 42.0627 17.9074 20.4711C17.9074 20.4711 18.5405 16.718 15.3624 16.8153C12.1842 16.9126 10.909 29.2445 10.909 29.2445C10.909 29.2445 8.02113 38.4078 5.57284 39.0896C3.12455 39.7714 6.15981 29.6831 5.62168 28.659C5.08354 27.635 4.34914 26.8577 3.32081 26.8073C2.29247 26.7568 1.0317 27.961 0.880658 28.8058Z" fill="#0B0023"/>
<path d="M30.4407 22.9235C29.7968 25.2148 27.8043 33.1074 28.0892 42.2383C28.0892 42.2383 29.3636 44.49 31.5713 43.2912C31.7612 43.187 31.9211 43.0359 32.0356 42.8525C32.1501 42.6691 32.2154 42.4595 32.2252 42.2437C32.3328 39.9164 32.8999 31.5258 35.6294 23.9314C35.6978 23.7411 35.7277 23.5392 35.7173 23.3373C35.707 23.1354 35.6566 22.9376 35.569 22.7553C35.4815 22.5729 35.3586 22.4096 35.2073 22.2748C35.0561 22.1399 34.8796 22.0363 34.6879 21.9697C33.7998 21.6689 32.5996 21.4681 31.3967 21.8941C31.1666 21.9775 30.9597 22.1144 30.7934 22.2934C30.6271 22.4725 30.5062 22.6885 30.4407 22.9235Z" fill="#0B0023"/>
<path d="M31.4945 18.9527C31.4945 18.9527 32.3022 21.1332 35.1783 19.5832C35.2973 19.519 35.4016 19.4309 35.4844 19.3244C35.5673 19.2178 35.6269 19.0952 35.6594 18.9644C35.8891 18.0322 36.5584 15.6175 37.7496 13.682C37.8095 13.5856 37.8482 13.4776 37.8631 13.3652C37.8779 13.2528 37.8686 13.1385 37.8356 13.03C37.8027 12.9214 37.7469 12.8211 37.6721 12.7357C37.5972 12.6503 37.5049 12.5817 37.4013 12.5346C36.4309 12.0932 34.745 11.669 33.2193 12.9957C30.9066 15.0042 31.4945 18.9527 31.4945 18.9527Z" fill="#0B0023"/>
<path d="M37.385 26.972C38.0299 24.4844 40.4872 16.7657 48.5665 15.8632C49.5396 15.7431 50.5254 15.9467 51.3702 16.4424C52.3253 17.0197 53.2017 18.0744 52.6627 19.9549C51.6343 23.5378 47.5979 22.8065 47.89 19.809C47.89 19.809 44.1203 21.043 42.5077 25.9444C42.4751 26.041 42.4705 26.1449 42.4947 26.2441C42.5188 26.3432 42.5706 26.4335 42.6441 26.5045C42.7176 26.5755 42.8098 26.6244 42.9101 26.6455C43.0103 26.6665 43.1144 26.6589 43.2105 26.6235C44.9931 25.9615 48.6533 25.0329 50.7172 27.3764C53.0688 30.0451 50.7905 34.797 50.7905 34.797C50.7905 34.797 46.6355 43.1048 39.4652 43.91C38.1846 44.0541 36.4399 43.1516 35.7182 42.0888C34.7025 40.5928 34.7115 34.5773 38.1601 34.2359C39.4526 34.1071 40.6337 35.8391 39.9066 37.6647C39.8844 37.7193 39.8752 37.7783 39.8799 37.837C39.8846 37.8957 39.9029 37.9525 39.9334 38.003C39.964 38.0534 40.0059 38.0961 40.0559 38.1276C40.1058 38.159 40.1625 38.1785 40.2213 38.1844C41.4966 38.315 44.8719 38.0043 47.5174 31.8798C47.6546 31.5765 47.7151 31.2444 47.6937 30.9124C47.6413 30.282 47.2569 29.5074 45.5819 29.8848C43.1625 30.4252 38.4414 32.4787 37.4031 29.0526C37.206 28.3738 37.1997 27.6541 37.385 26.972Z" fill="#0B0023"/>
<path d="M61.4704 6.15596C59.4228 9.63343 53.231 19.756 51.9648 41.308C51.9648 41.308 53.2989 44.5919 56.383 42.106C56.383 42.106 57.8509 29.5309 59.1722 26.9965C61.8068 21.9446 63.9205 21.2448 64.8014 21.5862C65.6823 21.9275 64.5563 25.1447 62.6968 30.5027C60.8373 35.8608 60.935 42.3015 62.648 43.6633C63.8011 44.582 65.1994 43.7768 65.9889 43.1535C66.1704 43.0104 66.3042 42.8159 66.3728 42.5958C66.4414 42.3756 66.4416 42.1399 66.3733 41.9196C66.0559 40.8955 65.591 38.8051 66.0739 36.4003C66.7595 32.9886 70.209 24.7997 70.777 22.5093C71.3639 20.1217 70.3365 17.6286 67.2497 17.5863C63.632 17.5377 60.7378 19.4876 60.7378 19.4876C60.7378 19.4876 62.6471 12.8587 67.0028 6.42796C67.0028 6.42796 66.689 3.54583 63.9449 4.25826C62.9002 4.53939 62.0102 5.22192 61.4704 6.15596Z" fill="#0B0023"/>
<path d="M85.3714 0.515114C83.4721 1.95618 77.785 5.64891 72.4851 13.1055C72.4851 13.1055 71.4549 17.0684 73.9403 17.4431C74.1549 17.474 74.3739 17.4495 74.5763 17.3719C74.7787 17.2943 74.9577 17.1662 75.0961 17C76.5921 15.2086 82.1263 8.85437 88.905 4.43301C89.0747 4.32226 89.2208 4.17914 89.3348 4.0119C89.4487 3.84466 89.5283 3.6566 89.5689 3.45858C89.6095 3.26056 89.6104 3.05649 89.5714 2.85815C89.5324 2.6598 89.4544 2.4711 89.3418 2.30293C88.8145 1.53287 87.977 0.650213 86.7597 0.269232C86.5253 0.196957 86.2771 0.181565 86.0355 0.224339C85.794 0.267114 85.5663 0.366814 85.3714 0.515114Z" fill="#3800B0"/>
<path d="M77.3559 0.878674C78.9142 2.23778 83.1288 6.18269 87.0486 12.7675C87.8852 14.1725 87.0749 15.9999 85.4641 16.3044C85.3601 16.3242 85.2515 16.3395 85.1376 16.3503C84.7089 16.3908 83.8207 16.163 83.6001 15.8369C82.4035 14.104 79.3185 8.7649 73.4062 4.35434C72.7831 3.8923 72.7216 2.99164 73.2814 2.36117C73.8964 1.66766 74.8244 0.889482 76.0517 0.590461C76.2763 0.530612 76.5122 0.525558 76.7392 0.575728C76.9662 0.625898 77.1777 0.729814 77.3559 0.878674Z" fill="#3800B0"/>
</svg>
