<svg width="24" height="24" viewBox="0 0 24 25" fill="none" xmlns="http://www.w3.org/2000/svg">
<path d="M12.0246 6.49561C8.8817 6.49561 6.37723 9.04918 6.37723 12.1429C6.37723 15.2858 8.8817 17.7902 12.0246 17.7902C15.1183 17.7902 17.6719 15.2858 17.6719 12.1429C17.6719 9.04918 15.1183 6.49561 12.0246 6.49561ZM12.0246 15.826C10.0112 15.826 8.34152 14.2054 8.34152 12.1429C8.34152 10.1295 9.96205 8.509 12.0246 8.509C14.0379 8.509 15.6585 10.1295 15.6585 12.1429C15.6585 14.2054 14.0379 15.826 12.0246 15.826ZM19.1942 6.29918C19.1942 5.56257 18.6049 4.97328 17.8683 4.97328C17.1317 4.97328 16.5424 5.56257 16.5424 6.29918C16.5424 7.03578 17.1317 7.62507 17.8683 7.62507C18.6049 7.62507 19.1942 7.03578 19.1942 6.29918ZM22.9263 7.62507C22.8281 5.85721 22.4353 4.28578 21.1585 3.009C19.8817 1.73221 18.3103 1.33936 16.5424 1.24114C14.7254 1.14293 9.27455 1.14293 7.45759 1.24114C5.68973 1.33936 4.16741 1.73221 2.84152 3.009C1.56473 4.28578 1.17188 5.85721 1.07366 7.62507C0.975446 9.44203 0.975446 14.8929 1.07366 16.7099C1.17188 18.4777 1.56473 20.0001 2.84152 21.326C4.16741 22.6027 5.68973 22.9956 7.45759 23.0938C9.27455 23.192 14.7254 23.192 16.5424 23.0938C18.3103 22.9956 19.8817 22.6027 21.1585 21.326C22.4353 20.0001 22.8281 18.4777 22.9263 16.7099C23.0246 14.8929 23.0246 9.44203 22.9263 7.62507ZM20.5692 18.6251C20.2254 19.6072 19.4397 20.3438 18.5067 20.7367C17.0335 21.326 13.596 21.1786 12.0246 21.1786C10.404 21.1786 6.96652 21.326 5.54241 20.7367C4.56027 20.3438 3.82366 19.6072 3.4308 18.6251C2.84152 17.201 2.98884 13.7635 2.98884 12.1429C2.98884 10.5715 2.84152 7.134 3.4308 5.66078C3.82366 4.72775 4.56027 3.99114 5.54241 3.59828C6.96652 3.009 10.404 3.15632 12.0246 3.15632C13.596 3.15632 17.0335 3.009 18.5067 3.59828C19.4397 3.94203 20.1763 4.72775 20.5692 5.66078C21.1585 7.134 21.0112 10.5715 21.0112 12.1429C21.0112 13.7635 21.1585 17.201 20.5692 18.6251Z" fill="white"/>
</svg>
