<svg width="24" height="24" viewBox="0 0 24 25" fill="none" xmlns="http://www.w3.org/2000/svg">
<path d="M21.625 10.1909V6.45264C21.582 6.45264 21.582 6.45264 21.582 6.45264C20.5508 6.45264 19.5625 6.15186 18.7461 5.59326C17.543 4.81982 16.6836 3.57373 16.4258 2.15576C16.3398 1.85498 16.3398 1.5542 16.3398 1.25342C16.3398 1.21045 16.3398 1.21045 16.3398 1.16748H12.5586V16.2065C12.5586 17.9683 11.0977 19.4292 9.33594 19.4292C7.57422 19.4292 6.11328 17.9683 6.11328 16.2065C6.11328 14.4448 7.57422 12.9839 9.33594 12.9839C9.67969 12.9839 9.98047 13.0269 10.3242 13.1558V9.28857C9.98047 9.24561 9.67969 9.20264 9.33594 9.20264C5.46875 9.20264 2.375 12.3394 2.375 16.2065C2.375 20.0737 5.46875 23.1675 9.33594 23.1675C13.2031 23.1675 16.3398 20.0737 16.3398 16.2065V8.51514C17.8008 9.58936 19.6055 10.1909 21.582 10.1909H21.625Z" fill="white"/>
</svg>
