<svg width="24" height="24" viewBox="0 0 24 25" fill="none" xmlns="http://www.w3.org/2000/svg">
<path d="M20.7613 7.66833C21.6223 7.02254 22.3973 6.24759 23 5.34348C22.225 5.6879 21.3209 5.94622 20.4168 6.03232C21.364 5.47263 22.0528 4.61158 22.3973 3.53526C21.5362 4.05189 20.546 4.43937 19.5558 4.65463C18.6947 3.75052 17.5323 3.23389 16.2407 3.23389C13.7436 3.23389 11.7202 5.25737 11.7202 7.75444C11.7202 8.09886 11.7632 8.44328 11.8493 8.7877C8.10372 8.57244 4.7456 6.76422 2.50685 4.05189C2.11937 4.69768 1.90411 5.47263 1.90411 6.33369C1.90411 7.88359 2.67906 9.26128 3.92759 10.0793C3.19569 10.0362 2.4638 9.86402 1.86106 9.5196V9.56265C1.86106 11.7583 3.41096 13.5666 5.47749 13.9971C5.13307 14.0832 4.70254 14.1693 4.31507 14.1693C4.0137 14.1693 3.75538 14.1263 3.45401 14.0832C4.0137 15.8914 5.69276 17.183 7.67319 17.2261C6.12329 18.4315 4.18591 19.1634 2.07632 19.1634C1.68885 19.1634 1.34442 19.1204 1 19.0773C2.98043 20.3689 5.34834 21.1008 7.93151 21.1008C16.2407 21.1008 20.7613 14.2554 20.7613 8.27107C20.7613 8.0558 20.7613 7.88359 20.7613 7.66833Z" fill="white"/>
</svg>
