<svg width="292" height="240" viewBox="0 0 292 240" fill="none" xmlns="http://www.w3.org/2000/svg">
<g clip-path="url(#clip0_442_22101)">
<path d="M141.57 18.2997C138.701 22.8007 134.893 28.8842 132.568 33.0881C123.963 35.7589 122.825 41.6446 123.27 45.7992C122.726 44.3648 121.935 42.7326 120.797 41.1498L137.366 14.2442C138.355 15.9257 139.839 17.3601 141.57 18.2997Z" fill="#1A76F2"/>
<path d="M169.223 33.1871C166.998 35.2147 165.168 37.9352 163.684 41.3972C159.084 33.0388 153.397 23.1468 151.765 21.4653C150.973 20.6738 150.182 19.6848 149.391 18.5965C151.517 17.7062 153.347 16.0247 154.386 13.9474L169.223 33.1871Z" fill="#1A76F2"/>
<path d="M146.071 0.247419C141.175 0.0990415 136.872 3.85781 136.278 8.50684C136.031 10.5348 136.476 12.513 137.416 14.1949C138.356 15.9257 139.839 17.3601 141.571 18.2997C142.955 18.9923 144.488 19.3881 146.071 19.3384C147.209 19.289 148.346 19.0416 149.385 18.5965C151.512 17.7062 153.342 16.0247 154.38 13.9475C154.974 12.7604 155.32 11.4744 155.37 10.0403C155.518 4.7974 151.215 0.395796 146.071 0.247419Z" fill="#3800B0"/>
<path d="M271.945 156.043C271.945 156.043 285.351 155.549 287.922 135.419C290.492 115.289 285.844 105.991 262.649 102.924C262.649 102.924 278.129 95.2088 278.129 78.6892C278.129 62.17 281.738 38.9738 247.711 48.2719C247.711 48.2719 232.232 13.2056 209.033 43.6229C209.033 43.6229 209.53 32.7913 194.099 29.181C184.206 26.8563 175.402 27.4991 169.22 33.2365C166.995 35.2644 165.115 37.9845 163.681 41.4466C162.84 43.4745 162.148 45.7495 161.554 48.2719C161.554 48.2719 164.126 30.2196 140.385 31.7527C137.269 31.9504 134.698 32.4453 132.571 33.0881C123.965 35.7589 122.828 41.6446 123.273 45.7992C122.729 44.3648 121.937 42.7326 120.8 41.1498C117.882 37.0943 112.639 33.3355 103.242 33.83C83.656 34.8686 85.6839 50.3492 85.6839 50.3492C85.0904 49.2119 78.2154 36.1547 65.554 35.4128C61.4487 35.1654 58.2342 36.2534 56.5523 36.9952C44.8802 41.9414 42.5555 56.1856 42.3578 57.6197C42.3578 57.6197 36.6698 53.5148 24.3051 55.0479C11.9405 56.581 6.25247 66.9181 7.29111 78.7883C8.32975 90.6584 24.8493 96.8409 24.8493 96.8409C24.8493 96.8409 16.0951 101.984 7.29111 109.206C-1.51248 116.427 -2.50178 141.206 7.29111 143.777C17.084 146.349 27.421 145.855 27.421 145.855C27.421 145.855 11.9405 153.57 11.4457 169.595C10.9512 185.57 12.9791 210.844 40.3299 203.128C40.3299 203.128 27.9652 218.609 35.186 227.907C42.4072 237.206 75.4459 241.311 78.5121 221.181C78.5121 221.181 86.2277 237.156 105.319 239.728C124.41 242.3 133.165 218.065 133.165 218.065C133.165 218.065 141.424 234.04 169.814 235.079C198.202 236.117 201.269 217.521 201.269 217.521C201.269 217.521 208.985 237.651 229.658 235.079C250.282 232.507 265.765 226.819 257.011 202.584C257.011 202.584 273.529 208.767 282.283 198.479C291.038 188.192 301.869 167.914 271.945 156.043Z" fill="#BFACE9"/>
<path d="M254.728 140.601C254.358 148.012 254.466 166.273 254.569 179.453C254.624 187.87 254.728 194.168 254.728 194.168C254.728 194.168 242.183 193.639 209.947 196.921C177.712 200.256 45.2235 194.168 45.2235 194.168C45.2235 194.168 45.8059 149.441 45.2235 133.985C45.0647 129.697 45.0119 122.71 44.9591 114.876C44.9059 94.4977 45.2235 68.2432 45.2235 68.2432C45.2235 68.2432 99.5317 61.627 122.239 61.0446C144.947 60.5154 254.783 57.1807 254.783 57.1807C254.783 57.1807 255.311 128.48 254.728 140.601Z" fill="#F9F3EF"/>
<path d="M254.79 186.254C254.79 184.189 254.735 181.807 254.735 179.267C236.688 173.55 185.924 156.929 167.927 144.278C159.299 138.244 148.183 130.463 136.433 123.265C118.012 111.937 97.9512 101.986 83.448 102.356C68.8388 102.674 54.1764 109.555 45.125 114.742C45.125 122.577 45.231 129.564 45.3898 133.851C45.9722 149.307 45.3898 200.035 45.3898 200.035C45.3898 200.035 177.878 206.122 210.113 202.787C242.349 199.452 254.893 200.035 254.893 200.035C254.893 200.035 254.842 190.964 254.79 186.254Z" fill="#3800B0"/>
<path d="M216.619 100.479C213.971 101.061 211.169 101.749 208.044 102.543C192.431 106.619 187.877 109.477 173.797 114.135C171.309 114.982 168.451 115.829 165.328 116.782C165.01 110.748 164.693 104.713 164.375 98.6792L187.032 78.2473L214.662 90.369C215.349 93.7565 215.984 97.0912 216.619 100.479Z" fill="#BFACE9"/>
<path d="M254.944 97.7792C250.553 97.4088 244.464 97.144 237.318 97.5676C231.76 97.8852 225.305 98.5732 216.623 100.479C213.975 101.061 211.172 101.749 208.048 102.543C192.434 106.619 187.881 109.477 173.8 114.135C171.313 114.982 168.454 115.829 165.331 116.782C157.497 119.058 147.705 121.493 136.219 123.504C147.97 130.703 159.138 138.537 167.713 144.518C185.709 157.116 236.42 173.79 254.523 179.506C254.416 166.379 254.309 148.065 254.682 140.654C255 134.885 255 116.094 254.944 97.7792Z" fill="#1A76F2"/>
<path d="M118.052 83.2232C118.37 84.6524 117.311 85.9755 116.94 86.5579C114.029 90.8454 106.672 90.8982 97.091 90.951C96.4558 90.951 96.0326 90.951 95.4502 90.951C85.2345 90.8982 80.0998 90.7922 77.7711 88.1987C76.6595 86.9283 75.4419 84.8112 76.1299 83.2232C77.1359 80.9469 81.9525 80.2589 88.516 81.7408C89.1512 80.7881 90.7923 78.6709 93.5447 77.8241C97.5674 76.6066 102.331 78.6181 105.296 82.8524C105.931 82.1116 107.73 80.2589 110.483 79.8885C113.606 79.4121 117.523 80.8413 118.052 83.2232Z" fill="#1A76F2"/>
<path d="M167.224 73.6422C167.33 74.8598 166.642 75.8654 166.325 76.289C164.26 79.3589 159.443 79.5709 152.668 79.7825C152.192 79.7825 151.186 79.7825 149.122 79.7825C148.645 79.7825 141.711 79.7297 135.942 78.1417C135.359 77.9829 134.301 77.6653 133.771 76.7654C133.083 75.6538 133.507 74.2774 133.665 73.6422C134.089 72.2663 135.253 70.0959 137.741 69.2492C139.964 68.5608 142.399 69.1432 144.04 70.8371C145.416 68.614 147.851 67.3436 150.392 67.4492C153.038 67.5552 155.42 69.196 156.532 71.6311C156.85 71.3135 159.179 69.0904 162.302 69.5667C164.525 69.9371 167.066 71.5251 167.224 73.6422Z" fill="#1A76F2"/>
<path d="M247.257 74.3306C247.467 75.6538 246.622 76.7654 246.304 77.2418C244.029 80.6293 238.733 80.8413 231.218 81.1056C230.69 81.1056 229.579 81.1056 227.3 81.1056C226.772 81.1056 219.098 81.0529 212.746 79.2533C212.111 79.0945 210.944 78.7237 210.365 77.7182C209.515 76.3418 210.099 74.701 210.257 74.2774C211.21 71.4723 214.279 70.4136 214.862 70.2548C218.304 69.1432 221.266 70.8899 221.742 71.2075C222.008 70.8899 224.601 67.9256 228.785 68.1904C233.072 68.402 235.295 71.7367 235.558 72.1075C236.248 71.6311 238.892 69.8843 242.175 70.4663C243.974 70.8371 246.939 72.1075 247.257 74.3306Z" fill="#1A76F2"/>
<path d="M111.883 178.453H118.715V169.213H123.923V163.221H118.715V139.253H110.203L91.8906 164.677V169.213H111.883V178.453ZM100.011 163.221V162.997L111.659 147.093H111.883V163.221H100.011Z" fill="white"/>
<path d="M146.001 172.965C144.619 172.965 143.331 172.648 142.137 172.013C140.942 171.378 139.915 170.464 139.057 169.269C138.235 168.074 137.582 166.6 137.097 164.845C136.649 163.09 136.425 161.093 136.425 158.853C136.425 156.613 136.649 154.616 137.097 152.861C137.582 151.106 138.235 149.632 139.057 148.437C139.915 147.242 140.942 146.328 142.137 145.693C143.331 145.058 144.619 144.741 146.001 144.741C147.419 144.741 148.707 145.058 149.865 145.693C151.022 146.328 152.011 147.242 152.833 148.437C153.691 149.632 154.363 151.106 154.849 152.861C155.334 154.616 155.577 156.613 155.577 158.853C155.577 161.093 155.334 163.09 154.849 164.845C154.363 166.6 153.691 168.074 152.833 169.269C152.011 170.464 151.022 171.378 149.865 172.013C148.707 172.648 147.419 172.965 146.001 172.965ZM146.001 179.181C148.39 179.181 150.574 178.714 152.553 177.781C154.569 176.848 156.305 175.504 157.761 173.749C159.217 171.994 160.337 169.866 161.121 167.365C161.942 164.826 162.353 161.989 162.353 158.853C162.353 155.717 161.942 152.898 161.121 150.397C160.337 147.858 159.217 145.712 157.761 143.957C156.305 142.202 154.569 140.858 152.553 139.925C150.574 138.992 148.39 138.525 146.001 138.525C143.611 138.525 141.409 138.992 139.393 139.925C137.377 140.858 135.641 142.202 134.185 143.957C132.766 145.712 131.646 147.858 130.825 150.397C130.003 152.898 129.593 155.717 129.593 158.853C129.593 161.989 130.003 164.826 130.825 167.365C131.646 169.866 132.766 171.994 134.185 173.749C135.641 175.504 137.377 176.848 139.393 177.781C141.409 178.714 143.611 179.181 146.001 179.181Z" fill="white"/>
<path d="M188.39 178.453H195.222V169.213H200.43V163.221H195.222V139.253H186.71L168.398 164.677V169.213H188.39V178.453ZM176.518 163.221V162.997L188.166 147.093H188.39V163.221H176.518Z" fill="white"/>
</g>
<defs>
<clipPath id="clip0_442_22101">
<rect width="291.561" height="240" fill="white" transform="translate(0.21875)"/>
</clipPath>
</defs>
</svg>
