<svg width="172" height="160" viewBox="0 0 172 160" fill="none" xmlns="http://www.w3.org/2000/svg">
<g clip-path="url(#clip0_584_81828)">
<path d="M164.384 114.104C163.273 117.289 161.87 120.329 160.204 123.193C143.722 151.364 100.851 164.311 58.2433 158.494C36.5299 155.513 22.9409 142.363 14.4076 127.196C4.47142 109.574 1.40292 89.2346 0.350865 79.0356C-1.60705 60.0401 8.03679 35.9305 16.4241 28.8585C24.782 21.7862 42.8131 15.6784 42.8131 15.6784C42.8131 15.6784 43.7775 14.714 42.8131 10.2136C41.8487 5.71326 42.8131 0.248275 42.8131 0.248275C42.8131 0.248275 83.3464 -0.0730396 85.918 0.248275C88.4898 0.56981 126.131 0.248275 126.131 0.248275L123.88 15.6784C123.88 15.6784 141.561 25.3222 157.662 37.5671C173.705 49.7534 176.279 79.6784 164.384 114.104Z" fill="#1A76F2"/>
<path d="M160.204 123.193C143.722 151.364 100.851 164.311 58.2428 158.494C36.5297 155.513 22.9407 142.363 14.4072 127.196C19.6092 125.91 26.7689 124.654 30.5387 126.261C36.8804 128.979 38.0785 137.746 38.0785 137.746C38.0785 137.746 44.4202 131.404 47.4301 128.979C50.4401 126.553 69.4648 125.355 71.5689 131.697C73.673 138.038 74.5791 139.558 74.5791 139.558C74.5791 139.558 76.6832 131.697 80.9206 128.979C85.1579 126.261 90.2722 132.603 90.2722 132.603C90.2722 132.603 92.6977 127.781 99.6237 125.355C106.58 122.93 111.108 132.603 111.108 132.603C111.108 132.603 114.119 128.073 121.979 125.063C129.841 122.053 135.277 134.415 135.277 134.415C135.277 134.415 136.182 128.687 141.618 124.449C144.804 121.965 153.541 122.404 160.204 123.193Z" fill="#3800B0"/>
<path d="M104.476 134.414C104.476 134.414 95.4156 120.825 99.653 107.236C103.89 93.6473 115.96 89.7314 101.465 71.9048C101.465 71.9048 118.385 75.2363 117.479 84.588C116.574 93.9396 108.712 101.509 106.317 110.539C103.919 119.569 101.757 112.088 104.476 134.414Z" fill="#00FF9E"/>
<path d="M51.0245 134.415C51.0245 134.415 43.1632 122.93 44.3906 110.276C45.5889 97.5928 53.7423 88.2412 51.0245 76.4641C48.3067 64.6868 34.7176 61.3553 48.0143 45.6621C48.0143 45.6621 44.0985 52.6175 49.8262 57.7316C55.554 62.8459 63.7075 71.9343 61.3112 80.0586C58.9149 88.1829 55.2619 93.0339 53.7714 102.093C52.281 111.153 47.1084 123.251 51.0245 134.415Z" fill="#00FF9E"/>
<path d="M133.727 84.4715C133.727 84.4715 132.472 86.0787 129.958 88.329C129.87 88.3875 129.782 88.4752 129.725 88.5335C129.14 89.0304 128.526 89.5855 127.825 90.1116C127.65 90.2578 127.474 90.3746 127.299 90.5208C121.046 95.3135 110.232 101.246 94.627 101.655C68.2088 102.356 66.9229 93.8814 66.9229 93.8814C66.9229 93.8814 57.6297 96.8916 52.1941 100.398C46.7585 103.905 25.5714 107.091 30.9194 99.2294C36.2379 91.3975 50.47 88.7382 50.47 88.7382C50.47 88.7382 22.7366 84.2085 28.8152 77.8961C34.8352 71.6423 48.5119 77.4869 48.8043 77.604C48.5413 77.341 34.7769 63.4012 35.0399 57.9947C35.3029 52.53 47.4599 57.7609 55.8471 66.791C64.2344 75.8212 67.9458 86.1081 67.9458 86.1081C67.9458 86.1081 80.3074 76.9609 92.8736 72.0807C91.2663 71.204 90.2728 70.2979 90.0974 69.7719C89.8927 69.1875 90.0098 68.6615 90.0098 68.6615C90.0098 68.6615 90.1266 68.1355 90.6235 67.7263C91.3248 67.0834 93.3704 67.3171 95.7084 68.3985C95.7084 68.3985 93.6334 65.9437 93.8673 63.8687C94.1303 61.7938 99.7119 65.3591 99.7119 65.3591C99.7119 65.3591 98.6892 61.1509 101.144 59.0468C101.261 58.9591 101.378 58.9006 101.524 58.8715C102.342 58.667 103.482 59.339 107.514 65.6222C108.741 67.5218 109.355 68.5738 109.649 69.3335C123.119 71.4376 133.727 84.4715 133.727 84.4715Z" fill="#FFD900"/>
<path d="M108.011 86.4877C108.011 86.4877 95.416 74.9736 94.6561 78.1298C93.8671 81.2565 97.1694 84.0914 97.1694 84.0914C97.1694 84.0914 90.5356 84.4712 91.5585 86.3123C92.5814 88.1534 95.7082 88.9133 95.7082 88.9133C93.1657 89.41 91.3831 90.4037 91.1786 91.3387C91.0325 91.9818 91.237 92.4493 91.237 92.4493C91.237 92.4493 91.4417 92.9462 91.9677 93.2969C93.0781 94.0565 99.5659 94.0274 105.557 88.9425C106.668 87.9781 107.514 87.0722 108.011 86.4877Z" fill="#3800B0"/>
<path d="M120.695 83.6237C120.461 85.2312 118.942 86.3709 117.333 86.3124C115.786 86.2539 114.411 85.0558 114.236 83.5946C114.002 81.6658 115.843 79.7662 117.831 80.0001C119.525 80.1754 120.958 81.812 120.695 83.6237Z" fill="#3800B0"/>
<path d="M117.684 81.2273C117.977 81.8701 117.101 83.156 116.165 83.0684C115.667 83.0098 115.141 82.5715 115.113 82.0455C115.054 81.3735 115.786 80.8766 116.399 80.7598C116.866 80.7012 117.508 80.8181 117.684 81.2273Z" fill="white"/>
<path d="M66.1332 145.578C66.1332 145.578 58.5935 123.251 66.1332 111.474C73.6729 99.697 87.5541 99.697 83.3461 87.6275C79.1379 75.558 71.5688 76.4641 75.8062 67.4046C80.0438 58.3453 85.4794 56.2412 85.4794 56.2412C85.4794 56.2412 78.8455 65.0083 80.0438 70.1224C81.2418 75.2367 90.3013 76.1717 90.0089 90.0532C89.7168 103.934 80.6575 103.029 74.9003 113.286C69.1434 123.544 64.9058 122.637 66.1332 145.578Z" fill="#00FF9E"/>
<path d="M128.935 139.558C128.935 139.558 125.604 115.711 135.568 109.662C145.534 103.613 150.678 101.216 147.053 90.345C143.43 79.4738 132.85 70.4145 141.911 42.6519C141.911 42.6519 141.617 52.0035 142.816 59.8646C144.015 67.7258 157.31 77.6618 153.073 94.2902C148.837 110.889 141.589 110.889 137.38 118.75C133.144 126.582 128.935 139.558 128.935 139.558Z" fill="#00FF9E"/>
<path d="M26.272 132.486C26.272 132.486 22.0346 126.437 22.9405 118.283C23.8466 110.13 32.9058 103.175 24.4603 89.001C24.4603 89.001 31.7076 89.2934 32.9058 96.5407C34.1332 103.788 22.0638 116.179 26.272 132.486Z" fill="#00FF9E"/>
<path d="M129.725 88.5331C129.139 89.03 128.526 89.5851 127.824 90.1112C125.808 89.5851 124.317 88.6501 124.317 88.6501L125.486 87.5396C125.486 87.5396 125.983 88.1241 128.554 88.5039C128.876 88.5624 129.286 88.5624 129.725 88.5331Z" fill="#3800B0"/>
</g>
<defs>
<clipPath id="clip0_584_81828">
<rect width="171.836" height="160" fill="white"/>
</clipPath>
</defs>
</svg>
