<svg width="218" height="144" viewBox="0 0 218 144" fill="none" xmlns="http://www.w3.org/2000/svg">
<g clip-path="url(#clip0_3302_51843)">
<path d="M174.769 172.907C163.46 178.821 161.729 170.161 101.577 161.211C101.096 161.145 100.586 161.071 100.076 160.995C98.2474 160.725 96.4483 160.46 94.6279 160.16C79.1311 157.627 63.7535 154.068 48.1547 152.382C29.7634 150.416 21.8942 150.706 16.5065 144.526C9.87995 136.921 12.8733 126.099 18.9644 99.9926C32.9693 40.1658 32.8973 30.5473 43.3519 25.4947C44.2424 25.0788 45.0805 24.7424 46.1648 24.5341C36.6642 29.7489 36.3061 40.6237 22.7497 98.5448C16.6293 124.643 13.6648 135.474 20.2919 143.077C25.6501 149.251 33.549 148.966 51.9395 150.935C67.5386 152.621 82.9237 156.151 98.4129 158.712L103.322 140.392C106.672 127.888 110.706 103.413 116.667 72.9086C119.814 56.8596 122.234 45.3843 123.846 38.0873C124.203 38.1515 124.552 38.245 124.88 38.3017C136.741 40.7943 142.938 42.2054 142.938 42.2054C157.674 44.9073 200.819 53.3513 201.473 57.8899C202.127 62.4285 180.28 170.02 174.769 172.907Z" fill="#02B795"/>
<path d="M116.665 72.9085C119.812 56.8595 122.232 45.3842 123.845 38.0872C124.018 37.3232 124.176 36.6176 124.326 35.9409C114.757 33.9691 102.254 31.4291 86.9318 28.4769C54.105 22.1119 51.1769 22.1065 47.1352 24.0465C46.8111 24.2091 46.4871 24.3717 46.1631 24.534C36.6624 29.7488 36.3043 40.6236 22.7479 98.5447C16.6275 124.643 13.663 135.474 20.2901 143.077C25.6483 149.25 33.5473 148.966 51.9377 150.935C67.5368 152.621 82.9219 156.151 98.4111 158.712L103.32 140.392C106.67 127.888 110.704 103.413 116.665 72.9085Z" fill="#2E1544"/>
<path d="M178.554 171.459C167.245 177.374 165.513 168.712 105.36 159.763C108.661 143.724 114.659 114.009 116.075 104.54C117.633 93.9556 125.608 52.6777 128.663 36.8536C140.525 39.346 146.723 40.7577 146.723 40.7577C161.457 43.4589 204.605 51.9036 205.259 56.4422C205.912 60.9806 184.063 168.572 178.554 171.459Z" fill="#2E1544"/>
<path d="M105.362 159.763C104.881 159.697 104.371 159.622 103.861 159.548C102.033 159.276 100.234 159.013 98.4131 158.712L103.322 140.392C106.672 127.888 110.706 103.413 116.667 72.9086C120.134 55.2 122.741 43.027 124.328 35.941C125.864 36.259 127.312 36.5535 128.665 36.8539C125.609 52.678 117.642 93.9268 116.076 104.54C114.69 114.017 108.662 143.724 105.362 159.763Z" fill="#FFD110"/>
<path d="M187.869 116.329C189.931 105.381 189.485 104.139 189.061 103.278C186.657 98.5194 177.346 96.866 158.759 93.5377C154.122 92.7001 150.282 92.1388 142.757 91.0263C136.609 90.1271 133.521 89.6737 132.956 89.8027C123.946 91.9076 125.182 107.417 117.085 137.754C116.423 140.225 114.936 145.655 117.764 149.529C120.275 152.945 124.934 153.477 126.857 153.742C154.081 157.173 167.705 167.742 176.169 159.881C176.918 159.178 178.486 153.676 181.547 142.715C183.585 135.345 185.841 127.161 187.869 116.329ZM178.004 140.706C175.291 150.358 173.941 155.17 173.272 155.801C165.848 162.694 153.846 153.401 129.879 150.376C128.187 150.172 124.077 149.694 121.894 146.678C119.408 143.269 120.717 138.509 121.301 136.328C128.415 109.654 127.331 96.0246 135.249 94.1571C135.748 94.0412 138.479 94.4301 143.876 95.222C150.506 96.1882 153.894 96.6907 157.962 97.438C174.323 100.357 182.497 101.83 184.626 105.985C184.994 106.707 185.414 107.817 183.58 117.454C181.805 126.983 179.844 134.187 178.004 140.706Z" fill="#FFD110"/>
<path d="M75.4777 112.518C74.6208 112.226 75.4483 109.487 74.2788 104.779C74.0396 103.811 73.1151 100.166 71.8683 100.05C71.591 100.038 71.2959 100.209 70.9444 100.707C69.4721 102.712 58.0895 116.928 63.1427 126.915C64.2163 129.073 65.7528 130.201 67.7908 131.901C69.7281 133.511 75.3171 138.125 82.8377 137.74C83.693 137.689 86.1057 137.525 88.6803 136.407C99.8559 131.454 102.025 112.775 99.3525 111.467C97.3602 110.527 92.124 118.786 89.9614 117.552C89.0137 117.018 89.6869 115.203 89.004 110.657C88.4765 107.274 88.0708 104.485 86.4735 103.933C84.7677 103.32 82.4382 105.501 80.4425 107.366C77.3032 110.358 76.3054 112.802 75.4777 112.518Z" fill="#DCB8FD"/>
<path d="M165.179 61.7851C165.179 61.7851 168.998 55.3287 163.375 53.5102C157.755 51.6925 154.915 56.822 155.341 60.1152C155.739 63.4009 157.978 65.2787 157.978 65.2787C157.978 65.2787 155.808 61.9856 149.837 65.6528C143.876 69.2916 144.189 72.8972 147.375 74.8416C150.555 76.8158 154.838 75.2519 158.175 72.3438C158.175 72.3438 154.5 75.8158 157.543 80.7452C160.587 85.6746 168.825 85.5135 170.105 75.852C170.105 75.852 173.701 80.4621 179.925 78.1717C186.185 75.8597 181.728 67.84 171.347 67.614C175.273 67.731 178.356 65.5339 178.862 62.8335C179.196 61.1153 178.485 59.1173 177.138 58.1017C174.65 56.2196 169.547 57.3457 165.179 61.7851Z" fill="#DCB8FD"/>
<path d="M99.1523 72.548C98.4621 74.0771 97.066 77.1939 93.977 80.2307C92.8705 81.3367 89.6149 84.2979 84.3731 85.9477C77.597 88.0901 71.8528 86.6134 69.7962 86.031C67.3826 85.3843 62.2301 83.9101 57.9343 79.2375C54.7293 75.7294 53.5275 72.0727 52.8822 70.0609C52.1617 67.7484 51.0201 63.9831 51.815 59.2719C52.7053 54.0875 55.4205 50.7011 56.9041 48.8858C58.3879 47.0704 62.1728 42.5995 68.6966 40.701C75.3231 38.7677 80.9077 40.607 85.6356 42.1544C90.2762 43.6783 94.343 45.0172 97.5186 48.9849C101.058 53.4549 101.324 58.5128 101.427 61.0337C101.476 62.0132 101.657 66.9235 99.1523 72.548Z" fill="#FFD110"/>
<path d="M56.0611 109.621C55.051 112.81 52.1848 114.317 51.5367 114.642C50.9257 114.946 48.1199 116.344 44.9253 115.239C41.2153 113.964 39.9107 110.342 39.5743 109.504C39.3095 108.748 38.8536 107.192 39.0403 105.216C39.1364 104.275 39.4701 100.937 42.2126 98.96C45.7314 96.4121 50.2124 98.2986 50.5168 98.4423C54.6782 100.243 57.4257 105.343 56.0611 109.621Z" fill="#02B795"/>
<path d="M40.1799 123.878C38.6624 126.401 33.7157 126.135 30.7354 124.464C29.9756 124.042 28.4854 123.206 28.0026 121.519C27.3133 119.09 29.3209 116.948 29.5811 116.675C29.7967 116.452 31.8625 114.325 34.8348 114.748C38.1056 115.219 39.5136 118.339 39.8018 119.008C40.1672 119.854 41.2309 122.165 40.1799 123.878Z" fill="#02B795"/>
<path d="M139.021 101.493C139.021 101.493 149.5 101.59 151.64 107.088C153.783 112.586 151.149 114.155 150.257 120.399C149.362 126.642 154.03 122.719 161.423 123.391C168.816 124.063 174.635 129.331 170.139 132.614C165.645 135.898 155.97 140.131 160.558 142.669C165.145 145.207 169.471 143.717 169.471 143.717L168.247 148.283C168.247 148.283 151.877 151.688 152.312 144.013C152.748 136.338 165.289 132.343 164.523 129.146C163.731 125.942 149.146 132.568 145.023 125.853C140.901 119.139 151.9 111.24 149.925 108.841C147.949 106.442 137.973 105.638 137.973 105.638L139.08 101.509L139.021 101.493Z" fill="#02B795"/>
<path d="M59.6648 61.9674C59.6648 61.9674 58.8442 68.6353 67.8387 73.1024C76.8332 77.5694 86.444 77.5266 91.4164 72.3452L86.7827 69.9816C86.7827 69.9816 87.8075 72.4377 83.1235 73.0526C78.4318 73.6968 70.9865 72.6368 68.5867 70.3108C66.1869 67.9848 63.3183 61.8243 63.3183 61.8243L59.6648 61.9674Z" fill="#2E1544"/>
<path d="M71.2983 52.3994C71.3382 53.0646 71.4016 53.6426 71.1003 54.1853C70.5135 55.2124 68.9342 55.7553 67.6201 55.3097C66.1314 54.8173 65.2315 53.1737 65.5475 51.7624C66.0135 49.6744 69.0065 48.8558 70.299 49.732C71.1281 50.3592 71.2292 51.7264 71.2983 52.3994Z" fill="#2E1544"/>
<path d="M91.9045 58.5443C91.6567 59.818 90.4726 60.7475 89.216 60.7848C88.2368 60.834 87.2523 60.3208 86.718 59.5232C86.1199 58.6149 86.282 57.6612 86.3307 57.3624C86.3796 57.0639 86.6217 55.6952 87.7839 55.1962C88.7035 54.7881 89.6241 55.1907 89.8995 55.3267C90.8781 55.7448 92.2012 56.9719 91.9045 58.5443Z" fill="#2E1544"/>
</g>
<defs>
<clipPath id="clip0_3302_51843">
<rect width="218" height="144" fill="white"/>
</clipPath>
</defs>
</svg>
