<svg width="24" height="24" viewBox="0 0 24 24" fill="none" xmlns="http://www.w3.org/2000/svg">
<path fill-rule="evenodd" clip-rule="evenodd" d="M12 23C18.0751 23 23 18.0751 23 12C23 5.92487 18.0751 1 12 1C5.92487 1 1 5.92487 1 12C1 18.0751 5.92487 23 12 23ZM8.42188 11.9844C8.42188 10.0156 10.0156 8.39062 12.0156 8.39062C13.9844 8.39062 15.6094 10.0156 15.6094 11.9844C15.6094 13.9844 13.9844 15.5781 12.0156 15.5781C10.0156 15.5781 8.42188 13.9844 8.42188 11.9844ZM9.67188 11.9844C9.67188 13.2969 10.7344 14.3281 12.0156 14.3281C13.2969 14.3281 14.3281 13.2969 14.3281 11.9844C14.3281 10.7031 13.2969 9.67188 12.0156 9.67188C10.7031 9.67188 9.67188 10.7031 9.67188 11.9844ZM15.7344 7.42188C16.2031 7.42188 16.5781 7.79688 16.5781 8.26562C16.5781 8.73438 16.2031 9.10938 15.7344 9.10938C15.2656 9.10938 14.8906 8.73438 14.8906 8.26562C14.8906 7.79688 15.2656 7.42188 15.7344 7.42188ZM17.8281 6.17188C18.6406 6.98438 18.8906 7.98438 18.9531 9.10938C19.0156 10.2656 19.0156 13.7344 18.9531 14.8906C18.8906 16.0156 18.6406 16.9844 17.8281 17.8281C17.0156 18.6406 16.0156 18.8906 14.8906 18.9531C13.7344 19.0156 10.2656 19.0156 9.10938 18.9531C7.98438 18.8906 7.01562 18.6406 6.17188 17.8281C5.35938 16.9844 5.10938 16.0156 5.04688 14.8906C4.98438 13.7344 4.98438 10.2656 5.04688 9.10938C5.10938 7.98438 5.35938 6.98438 6.17188 6.17188C7.01562 5.35938 7.98438 5.10938 9.10938 5.04688C10.2656 4.98438 13.7344 4.98438 14.8906 5.04688C16.0156 5.10938 17.0156 5.35938 17.8281 6.17188ZM16.1406 17.4531C16.7344 17.2031 17.2344 16.7344 17.4531 16.1094C17.7718 15.3393 17.752 13.644 17.7388 12.5192C17.7365 12.3204 17.7344 12.1393 17.7344 11.9844C17.7344 11.8351 17.7365 11.6594 17.7388 11.4653C17.7519 10.3592 17.7722 8.65694 17.4531 7.85938C17.2031 7.26562 16.7344 6.76562 16.1406 6.54688C15.3431 6.22785 13.6408 6.24808 12.5347 6.26123C12.3406 6.26354 12.1649 6.26562 12.0156 6.26562C11.8607 6.26562 11.6796 6.26351 11.4808 6.26118C10.356 6.24804 8.66071 6.22822 7.89062 6.54688C7.26562 6.79688 6.79688 7.26562 6.54688 7.85938C6.22785 8.65694 6.24808 10.3592 6.26123 11.4653C6.26354 11.6594 6.26562 11.8351 6.26562 11.9844C6.26562 12.1393 6.26351 12.3204 6.26118 12.5192C6.24804 13.644 6.22822 15.3393 6.54688 16.1094C6.79688 16.7344 7.26562 17.2031 7.89062 17.4531C8.66071 17.7718 10.356 17.752 11.4808 17.7388C11.6796 17.7365 11.8607 17.7344 12.0156 17.7344C12.1649 17.7344 12.3406 17.7365 12.5347 17.7388C13.6408 17.7519 15.3431 17.7722 16.1406 17.4531Z" fill="#3800B0"/>
</svg>
