<svg width="24" height="25" viewBox="0 0 24 25" fill="none" xmlns="http://www.w3.org/2000/svg">
<path fill-rule="evenodd" clip-rule="evenodd" d="M5.46136 11.341C5.7536 11.6345 5.75254 12.1094 5.45899 12.4016C3.50562 14.3463 3.51052 17.5114 5.46136 19.471C7.40605 21.4243 10.5712 21.4194 12.5307 19.4686C14.4856 17.5224 14.4873 14.3582 12.5295 12.4004C12.2366 12.1076 12.2366 11.6327 12.5295 11.3398C12.8224 11.0469 13.2973 11.0469 13.5902 11.3398C16.1324 13.882 16.1341 17.9978 13.589 20.5316C11.0485 23.0608 6.93364 23.0759 4.39834 20.5293C1.86917 17.9888 1.85408 13.8739 4.4007 11.3386C4.69424 11.0464 5.16912 11.0474 5.46136 11.341Z" fill="#3800B0"/>
<path fill-rule="evenodd" clip-rule="evenodd" d="M18.5508 6.38152C16.4913 4.33084 13.1662 4.32572 11.1214 6.37926C9.07218 8.43725 9.07381 11.7632 11.1203 13.8097C11.4132 14.1026 11.4132 14.5775 11.1203 14.8704C10.8274 15.1633 10.3525 15.1633 10.0596 14.8704C7.42611 12.2369 7.42774 7.96287 10.0585 5.32086C12.6937 2.6744 16.9686 2.68928 19.6092 5.3186C22.2556 7.9538 22.2407 12.2287 19.6114 14.8693C19.3192 15.1628 18.8443 15.1638 18.5508 14.8715C18.2572 14.5793 18.2562 14.1044 18.5485 13.8109C20.5992 11.7514 20.6043 8.42632 18.5508 6.38152Z" fill="#3800B0"/>
</svg>
