<svg width="24" height="24" viewBox="0 0 23 22" fill="none" xmlns="http://www.w3.org/2000/svg">
<path fill-rule="evenodd" clip-rule="evenodd" d="M11.1001 1.68005C6.26761 1.68005 2.3501 5.59756 2.3501 10.4301C2.3501 15.2625 6.26761 19.1801 11.1001 19.1801C15.9326 19.1801 19.8501 15.2625 19.8501 10.4301C19.8501 5.59756 15.9326 1.68005 11.1001 1.68005ZM0.850098 10.4301C0.850098 4.76913 5.43918 0.180054 11.1001 0.180054C16.761 0.180054 21.3501 4.76913 21.3501 10.4301C21.3501 16.091 16.761 20.6801 11.1001 20.6801C5.43918 20.6801 0.850098 16.091 0.850098 10.4301Z" fill="#3800B0"/>
<path fill-rule="evenodd" clip-rule="evenodd" d="M19.0698 18.3997C19.3627 18.1068 19.8375 18.1068 20.1304 18.3997L22.1304 20.3997C22.4233 20.6926 22.4233 21.1675 22.1304 21.4604C21.8375 21.7533 21.3627 21.7533 21.0698 21.4604L19.0698 19.4604C18.7769 19.1675 18.7769 18.6926 19.0698 18.3997Z" fill="#3800B0"/>
</svg>
