<svg width="24" height="25" viewBox="0 0 24 25" fill="none" xmlns="http://www.w3.org/2000/svg">
<path d="M20.7613 8.43127C21.6223 7.78548 22.3973 7.01052 23 6.10642C22.225 6.45084 21.3209 6.70916 20.4168 6.79526C21.364 6.23557 22.0528 5.37452 22.3973 4.2982C21.5362 4.81483 20.546 5.20231 19.5558 5.41757C18.6947 4.51346 17.5323 3.99683 16.2407 3.99683C13.7436 3.99683 11.7202 6.02031 11.7202 8.51737C11.7202 8.8618 11.7632 9.20622 11.8493 9.55064C8.10372 9.33538 4.7456 7.52716 2.50685 4.81483C2.11937 5.46062 1.90411 6.23557 1.90411 7.09663C1.90411 8.64653 2.67906 10.0242 3.92759 10.8422C3.19569 10.7992 2.4638 10.627 1.86106 10.2825V10.3256C1.86106 12.5213 3.41096 14.3295 5.47749 14.76C5.13307 14.8461 4.70254 14.9322 4.31507 14.9322C4.0137 14.9322 3.75538 14.8892 3.45401 14.8461C4.0137 16.6544 5.69276 17.9459 7.67319 17.989C6.12329 19.1945 4.18591 19.9264 2.07632 19.9264C1.68885 19.9264 1.34442 19.8833 1 19.8403C2.98043 21.1319 5.34834 21.8638 7.93151 21.8638C16.2407 21.8638 20.7613 15.0184 20.7613 9.03401C20.7613 8.81874 20.7613 8.64653 20.7613 8.43127Z" fill="#3800B0"/>
</svg>
