<svg width="25" height="24" viewBox="0 0 25 24" fill="none" xmlns="http://www.w3.org/2000/svg">
<path d="M22.0628 10.74L20.7028 9.16C20.4428 8.86 20.2328 8.3 20.2328 7.9V6.2C20.2328 5.14 19.3628 4.27 18.3028 4.27H16.6028C16.2128 4.27 15.6428 4.06 15.3428 3.8L13.7628 2.44C13.0728 1.85 11.9428 1.85 11.2428 2.44L9.67281 3.81C9.37281 4.06 8.80281 4.27 8.41281 4.27H6.68281C5.62281 4.27 4.75281 5.14 4.75281 6.2V7.91C4.75281 8.3 4.54281 8.86 4.29281 9.16L2.94281 10.75C2.36281 11.44 2.36281 12.56 2.94281 13.25L4.29281 14.84C4.54281 15.14 4.75281 15.7 4.75281 16.09V17.8C4.75281 18.86 5.62281 19.73 6.68281 19.73H8.41281C8.80281 19.73 9.37281 19.94 9.67281 20.2L11.2528 21.56C11.9428 22.15 13.0728 22.15 13.7728 21.56L15.3528 20.2C15.6528 19.94 16.2128 19.73 16.6128 19.73H18.3128C19.3728 19.73 20.2428 18.86 20.2428 17.8V16.1C20.2428 15.71 20.4528 15.14 20.7128 14.84L22.0728 13.26C22.6528 12.57 22.6528 11.43 22.0628 10.74ZM16.6628 10.11L11.8328 14.94C11.6928 15.08 11.5028 15.16 11.3028 15.16C11.1028 15.16 10.9128 15.08 10.7728 14.94L8.35281 12.52C8.06281 12.23 8.06281 11.75 8.35281 11.46C8.64281 11.17 9.12281 11.17 9.41281 11.46L11.3028 13.35L15.6028 9.05C15.8928 8.76 16.3728 8.76 16.6628 9.05C16.9528 9.34 16.9528 9.82 16.6628 10.11Z" fill="#1A76F2"/>
</svg>
