<svg width="160" height="18" viewBox="0 0 160 18" fill="none" xmlns="http://www.w3.org/2000/svg">
<path fill-rule="evenodd" clip-rule="evenodd" d="M160 10.2031C153.41 15.3138 146.738 17.9302 140 17.9302C133.049 17.9302 126.169 15.1458 119.375 9.71104C112.835 4.47916 106.382 1.93018 100 1.93018C93.6176 1.93018 87.1646 4.47916 80.6247 9.71104C73.8312 15.1458 66.9509 17.9302 60 17.9302C53.0491 17.9302 46.1688 15.1458 39.3753 9.71104C32.8354 4.47916 26.3824 1.93018 20 1.93018C13.6176 1.93018 7.16455 4.47916 0.624695 9.71104C0.416545 9.87756 0.208313 10.0416 0 10.2031V7.65722C5.96841 3.0289 12.0033 0.446298 18.0938 0L21.9062 0C28.2092 0.461875 34.4528 3.21179 40.6247 8.14931C47.1646 13.3812 53.6176 15.9302 60 15.9302C66.3824 15.9302 72.8354 13.3812 79.3753 8.14931C85.5472 3.21179 91.7908 0.461875 98.0938 0L101.906 0C108.209 0.461875 114.453 3.21179 120.625 8.14931C127.165 13.3812 133.618 15.9302 140 15.9302C146.382 15.9302 152.835 13.3812 159.375 8.14931C159.583 7.98279 159.792 7.81876 160 7.65722V10.2031Z" fill="#00FF9E"/>
</svg>
