<svg width="113" height="57" viewBox="0 0 113 57" fill="none" xmlns="http://www.w3.org/2000/svg">
<path d="M1.60114 35.7796C1.60114 35.7796 -2.29921 55.565 4.5835 55.565C11.4662 55.565 14.6781 46.609 14.6781 46.609C14.6781 46.609 15.734 56.0221 21.286 56.0221C26.8381 56.0221 34.2714 48.3304 35.3725 24.6902C35.3725 24.6902 35.9841 18.2324 30.9634 18.2324C30.5099 18.232 30.0742 18.4086 29.7498 18.7243C29.4254 19.0399 29.2381 19.4696 29.2281 19.9212C29.1026 26.1763 28.2083 47.7472 22.0933 50.036C22.0933 50.036 16.7085 52.3508 22.8846 25.3612C22.8846 25.3612 23.676 20.6698 19.7033 20.7914C15.7306 20.913 14.1365 36.3279 14.1365 36.3279C14.1365 36.3279 10.5267 47.7821 7.46637 48.6344C4.406 49.4866 8.20009 36.8762 7.52742 35.5961C6.85475 34.3161 5.93675 33.3445 4.65133 33.2814C3.36591 33.2184 1.78994 34.7236 1.60114 35.7796Z" fill="white"/>
<path d="M38.5516 28.4265C37.7467 31.2906 35.2561 41.1563 35.6122 52.57C35.6122 52.57 37.2051 55.3846 39.9648 53.8861C40.2022 53.7558 40.4021 53.567 40.5452 53.3377C40.6883 53.1085 40.7699 52.8464 40.7822 52.5767C40.9167 49.6676 41.6255 39.1793 45.0375 29.6863C45.123 29.4484 45.1603 29.1961 45.1473 28.9437C45.1344 28.6914 45.0714 28.4441 44.962 28.2162C44.8526 27.9882 44.6989 27.7841 44.5099 27.6156C44.3208 27.447 44.1002 27.3174 43.8606 27.2343C42.7504 26.8582 41.2502 26.6072 39.7466 27.1397C39.4589 27.2439 39.2003 27.4151 38.9925 27.6389C38.7846 27.8627 38.6335 28.1328 38.5516 28.4265Z" fill="white"/>
<path d="M39.8687 23.4627C39.8687 23.4627 40.8782 26.1884 44.4733 24.2508C44.6221 24.1707 44.7525 24.0605 44.856 23.9273C44.9596 23.7941 45.0341 23.6409 45.0748 23.4774C45.362 22.3121 46.1986 19.2938 47.6875 16.8744C47.7625 16.7539 47.8108 16.6189 47.8294 16.4784C47.8479 16.3378 47.8362 16.195 47.7951 16.0593C47.7539 15.9236 47.6842 15.7983 47.5906 15.6915C47.497 15.5847 47.3816 15.499 47.2522 15.44C46.0391 14.8884 43.9318 14.3581 42.0246 16.0165C39.1338 18.5271 39.8687 23.4627 39.8687 23.4627Z" fill="white"/>
<path d="M47.2319 33.4871C48.0379 30.3776 51.1096 20.7292 61.2087 19.6011C62.4251 19.451 63.6573 19.7055 64.7134 20.325C65.9072 21.0467 67.0027 22.365 66.3289 24.7158C65.0435 29.1943 59.9979 28.2802 60.363 24.5334C60.363 24.5334 55.651 26.0758 53.6352 32.2026C53.5944 32.3234 53.5888 32.4533 53.6189 32.5772C53.6491 32.7011 53.7139 32.8139 53.8057 32.9027C53.8976 32.9915 54.0129 33.0526 54.1381 33.0789C54.2634 33.1052 54.3936 33.0957 54.5136 33.0514C56.7419 32.224 61.3172 31.0632 63.8971 33.9926C66.8365 37.3285 63.9887 43.2684 63.9887 43.2684C63.9887 43.2684 58.795 53.653 49.8321 54.6595C48.2313 54.8397 46.0505 53.7116 45.1483 52.3831C43.8787 50.5131 43.89 42.9937 48.2007 42.567C49.8163 42.406 51.2928 44.571 50.3838 46.853C50.356 46.9212 50.3446 46.995 50.3504 47.0684C50.3563 47.1418 50.3792 47.2128 50.4173 47.2758C50.4555 47.3389 50.5079 47.3922 50.5704 47.4315C50.6329 47.4709 50.7037 47.4952 50.7772 47.5026C52.3713 47.6659 56.5904 47.2775 59.8973 39.6218C60.0688 39.2427 60.1445 38.8276 60.1177 38.4127C60.0522 37.6246 59.5717 36.6564 57.4779 37.1281C54.4537 37.8036 48.5523 40.3705 47.2545 36.0878C47.008 35.2393 47.0002 34.3397 47.2319 33.4871Z" fill="white"/>
<path d="M77.3381 7.46729C74.7785 11.8141 67.0389 24.4674 65.4561 51.4074C65.4561 51.4074 67.1237 55.5122 70.9788 52.4049C70.9788 52.4049 72.8136 36.686 74.4654 33.5179C77.7586 27.2031 80.4007 26.3284 81.5018 26.755C82.603 27.1817 81.1954 31.2032 78.8711 37.9008C76.5467 44.5984 76.6688 52.6492 78.81 54.3514C80.2514 55.4998 81.9993 54.4933 82.9862 53.7142C83.2131 53.5353 83.3803 53.2923 83.4661 53.017C83.5518 52.7418 83.552 52.4472 83.4667 52.1718C83.0699 50.8917 82.4888 48.2787 83.0925 45.2727C83.9494 41.0081 88.2613 30.772 88.9713 27.909C89.705 24.9244 88.4207 21.8081 84.5622 21.7552C80.04 21.6944 76.4223 24.1319 76.4223 24.1319C76.4223 24.1319 78.8089 15.8457 84.2536 7.80729C84.2536 7.80729 83.8613 4.20463 80.4312 5.09516C79.1253 5.44658 78.0128 6.29973 77.3381 7.46729Z" fill="white"/>
<path d="M107.215 0.415987C104.841 2.21732 97.7318 6.83323 91.1069 16.154C91.1069 16.154 89.8192 21.1077 92.9259 21.576C93.1942 21.6146 93.468 21.584 93.721 21.487C93.9739 21.39 94.1977 21.2299 94.3707 21.0221C96.2406 18.7828 103.158 10.8401 111.632 5.31335C111.844 5.17492 112.027 4.99602 112.169 4.78697C112.311 4.57791 112.411 4.34285 112.462 4.09532C112.512 3.84779 112.513 3.59271 112.465 3.34478C112.416 3.09685 112.319 2.86097 112.178 2.65076C111.519 1.68818 110.472 0.584861 108.95 0.108635C108.657 0.0182915 108.347 -0.000949392 108.045 0.0525189C107.743 0.105987 107.458 0.230613 107.215 0.415987Z" fill="white"/>
<path d="M97.1948 0.870682C99.1427 2.56956 104.411 7.5007 109.311 15.7317C110.357 17.488 109.344 19.7723 107.33 20.1528C107.2 20.1776 107.064 20.1967 106.922 20.2102C106.386 20.2609 105.276 19.976 105 19.5685C103.504 17.4024 99.6481 10.7285 92.2577 5.21527C91.4788 4.63771 91.4019 3.51188 92.1017 2.7238C92.8705 1.85691 94.0304 0.884192 95.5646 0.510416C95.8454 0.435604 96.1402 0.429287 96.4239 0.491999C96.7077 0.554711 96.9721 0.684606 97.1948 0.870682Z" fill="white"/>
</svg>
