<svg width="112" height="56" viewBox="0 0 112 56" fill="currentColor"  xmlns="http://www.w3.org/2000/svg">
<path d="M1.10114 35.7575C1.10114 35.7575 -2.79921 55.5429 4.0835 55.5429C10.9662 55.5429 14.1781 46.5869 14.1781 46.5869C14.1781 46.5869 15.234 56 20.786 56C26.3381 56 33.7714 48.3083 34.8725 24.6681C34.8725 24.6681 35.4841 18.2103 30.4634 18.2103C30.0099 18.2099 29.5742 18.3865 29.2498 18.7022C28.9254 19.0178 28.7381 19.4475 28.7281 19.8991C28.6026 26.1542 27.7083 47.7251 21.5933 50.0139C21.5933 50.0139 16.2085 52.3287 22.3846 25.3391C22.3846 25.3391 23.176 20.6478 19.2033 20.7693C15.2306 20.8909 13.6365 36.3058 13.6365 36.3058C13.6365 36.3058 10.0267 47.76 6.96637 48.6123C3.906 49.4645 7.70009 36.8541 7.02742 35.574C6.35475 34.294 5.43675 33.3224 4.15133 33.2593C2.86591 33.1963 1.28994 34.7015 1.10114 35.7575Z"/>
<path d="M38.0516 28.4047C37.2467 31.2689 34.7561 41.1345 35.1122 52.5482C35.1122 52.5482 36.7051 55.3628 39.4648 53.8643C39.7022 53.734 39.9021 53.5452 40.0452 53.3159C40.1883 53.0867 40.2699 52.8246 40.2821 52.555C40.4167 49.6458 41.1255 39.1576 44.5375 29.6645C44.623 29.4267 44.6603 29.1743 44.6473 28.9219C44.6344 28.6696 44.5714 28.4223 44.462 28.1944C44.3526 27.9664 44.1989 27.7623 44.0099 27.5938C43.8208 27.4252 43.6002 27.2957 43.3606 27.2125C42.2504 26.8365 40.7502 26.5854 39.2466 27.1179C38.9589 27.2221 38.7003 27.3933 38.4925 27.6171C38.2846 27.8409 38.1335 28.111 38.0516 28.4047Z"/>
<path d="M39.3687 23.441C39.3687 23.441 40.3782 26.1666 43.9733 24.229C44.1221 24.1489 44.2525 24.0387 44.356 23.9055C44.4596 23.7723 44.5341 23.6191 44.5748 23.4556C44.862 22.2904 45.6986 19.272 47.1875 16.8526C47.2625 16.7321 47.3108 16.5971 47.3294 16.4566C47.3479 16.3161 47.3362 16.1732 47.2951 16.0376C47.2539 15.9019 47.1842 15.7765 47.0906 15.6697C46.997 15.5629 46.8816 15.4772 46.7522 15.4183C45.5391 14.8666 43.4318 14.3364 41.5246 15.9947C38.6338 18.5053 39.3687 23.441 39.3687 23.441Z"/>
<path d="M46.7319 33.4653C47.5379 30.3558 50.6096 20.7074 60.7087 19.5793C61.9251 19.4292 63.1572 19.6837 64.2133 20.3032C65.4072 21.0249 66.5027 22.3433 65.8289 24.694C64.5435 29.1726 59.4979 28.2584 59.863 24.5116C59.863 24.5116 55.151 26.054 53.1352 32.1808C53.0944 32.3016 53.0887 32.4315 53.1189 32.5554C53.1491 32.6793 53.2139 32.7922 53.3057 32.8809C53.3976 32.9697 53.5129 33.0308 53.6381 33.0571C53.7634 33.0834 53.8936 33.0739 54.0136 33.0297C56.2419 32.2022 60.8172 31.0414 63.3971 33.9708C66.3365 37.3067 63.4887 43.2466 63.4887 43.2466C63.4887 43.2466 58.295 53.6313 49.3321 54.6377C47.7313 54.8179 45.5504 53.6898 44.6483 52.3613C43.3787 50.4913 43.39 42.9719 47.7007 42.5452C49.3163 42.3842 50.7927 44.5492 49.8838 46.8312C49.856 46.8995 49.8446 46.9732 49.8504 47.0466C49.8563 47.12 49.8792 47.191 49.9173 47.254C49.9555 47.3171 50.0079 47.3704 50.0704 47.4097C50.1329 47.4491 50.2037 47.4735 50.2772 47.4808C51.8713 47.6441 56.0904 47.2557 59.3973 39.6C59.5688 39.2209 59.6445 38.8058 59.6177 38.3909C59.5521 37.6028 59.0717 36.6346 56.9779 37.1063C53.9537 37.7818 48.0523 40.3487 46.7545 36.066C46.508 35.2175 46.5002 34.318 46.7319 33.4653Z"/>
<path d="M76.8381 7.44513C74.2785 11.792 66.5389 24.4452 64.9561 51.3852C64.9561 51.3852 66.6237 55.49 70.4788 52.3827C70.4788 52.3827 72.3137 36.6638 73.9654 33.4958C77.2586 27.181 79.9007 26.3062 81.0018 26.7329C82.103 27.1596 80.6955 31.181 78.3711 37.8786C76.0467 44.5762 76.1688 52.627 78.31 54.3293C79.7515 55.4776 81.4993 54.4711 82.4862 53.6921C82.7131 53.5131 82.8803 53.2701 82.9661 52.9949C83.0518 52.7196 83.052 52.425 82.9667 52.1497C82.5699 50.8696 81.9888 48.2565 82.5925 45.2506C83.4494 40.9859 87.7613 30.7499 88.4713 27.8869C89.205 24.9023 87.9207 21.786 84.0622 21.7331C79.54 21.6723 75.9223 24.1097 75.9223 24.1097C75.9223 24.1097 78.3089 15.8236 83.7536 7.78513C83.7536 7.78513 83.3613 4.18247 79.9312 5.07301C78.6253 5.42442 77.5128 6.27758 76.8381 7.44513Z"/>
<path d="M106.715 0.394045C104.341 2.19538 97.2318 6.81129 90.6069 16.132C90.6069 16.132 89.3192 21.0857 92.4259 21.5541C92.6942 21.5927 92.968 21.562 93.221 21.465C93.474 21.368 93.6977 21.208 93.8707 21.0001C95.7406 18.7609 102.658 10.8181 111.132 5.29141C111.344 5.15298 111.527 4.97408 111.669 4.76503C111.811 4.55597 111.911 4.3209 111.962 4.07338C112.012 3.82585 112.014 3.57077 111.965 3.32284C111.916 3.0749 111.819 2.83903 111.678 2.62882C111.019 1.66623 109.972 0.562919 108.45 0.0866925C108.157 -0.00365066 107.847 -0.0228915 107.545 0.0305768C107.243 0.0840451 106.958 0.20867 106.715 0.394045Z"/>
<path d="M96.6948 0.848892C98.6427 2.54777 103.911 7.47891 108.811 15.7099C109.857 17.4662 108.844 19.7505 106.83 20.131C106.7 20.1558 106.564 20.1749 106.422 20.1884C105.886 20.2391 104.776 19.9543 104.5 19.5467C103.004 17.3806 99.1481 10.7067 91.7577 5.19348C90.9788 4.61593 90.9019 3.49009 91.6017 2.70201C92.3705 1.83512 93.5304 0.862402 95.0646 0.488626C95.3454 0.413814 95.6402 0.407497 95.9239 0.470209C96.2077 0.532922 96.4721 0.662817 96.6948 0.848892Z"/>
</svg>
