<svg  viewBox="0 0 20 21" fill="currentColor" xmlns="http://www.w3.org/2000/svg">
<path fill-rule="evenodd" clip-rule="evenodd" d="M4.49972 12.5131C4.7438 12.2691 5.13953 12.2691 5.38361 12.5131L10 17.1295L14.6164 12.5131C14.8605 12.2691 15.2562 12.2691 15.5003 12.5131C15.7444 12.7572 15.7444 13.1529 15.5003 13.397L10.4419 18.4554C10.3247 18.5726 10.1658 18.6384 10 18.6384C9.83424 18.6384 9.67527 18.5726 9.55806 18.4554L4.49972 13.397C4.25565 13.1529 4.25565 12.7572 4.49972 12.5131Z" fill="currentColor"/>
<path fill-rule="evenodd" clip-rule="evenodd" d="M10 3.22174C10.3452 3.22174 10.625 3.50156 10.625 3.84674V17.8717C10.625 18.2169 10.3452 18.4967 10 18.4967C9.65482 18.4967 9.375 18.2169 9.375 17.8717V3.84674C9.375 3.50156 9.65482 3.22174 10 3.22174Z" fill="currentColor"/>
</svg>
