<svg width="24" height="24" viewBox="0 0 25 24" fill="none" xmlns="http://www.w3.org/2000/svg">
<path d="M5.59961 10C4.49961 10 3.59961 10.9 3.59961 12C3.59961 13.1 4.49961 14 5.59961 14C6.69961 14 7.59961 13.1 7.59961 12C7.59961 10.9 6.69961 10 5.59961 10Z" fill="#3800B0"/>
<path d="M19.5996 10C18.4996 10 17.5996 10.9 17.5996 12C17.5996 13.1 18.4996 14 19.5996 14C20.6996 14 21.5996 13.1 21.5996 12C21.5996 10.9 20.6996 10 19.5996 10Z" fill="#3800B0"/>
<path d="M12.5996 10C11.4996 10 10.5996 10.9 10.5996 12C10.5996 13.1 11.4996 14 12.5996 14C13.6996 14 14.5996 13.1 14.5996 12C14.5996 10.9 13.6996 10 12.5996 10Z" fill="#3800B0"/>
</svg>
