<svg width="79" height="81" viewBox="0 0 79 81" fill="none" xmlns="http://www.w3.org/2000/svg">
<g clip-path="url(#clip0_343_13851)">
<path d="M18.3444 23.3634C16.2385 25.1275 12.5188 26.7549 8.71703 27.0421C5.18882 27.3155 1.05897 26.4677 0.607692 27.7805C0.539281 27.9856 0.552921 28.2181 0.689742 28.5052C1.81107 31.0215 8.48462 29.9685 12.8744 32.4027C19.6709 36.177 20.7786 48.3616 21.3119 54.3377C21.6949 58.536 21.7085 65.0318 22.9393 65.1549C23.117 65.1685 23.2675 65.0591 23.3359 65.0044C24.7991 63.8283 25.5239 40.1975 29.4213 35.3292C30.3513 34.1668 31.7462 32.1703 34.3444 30.666C39.1718 27.8626 45.0521 28.3549 45.1615 26.9052C45.1752 26.7959 45.1478 26.6591 44.9974 26.4267C43.4247 24.0882 37.4624 25.7839 34.0572 23.8693C27.5342 20.2044 25.9068 0.771901 25.5375 0.594157C25.3051 0.484721 25.1683 0.48472 25.0042 0.512104C21.9273 0.936002 25.8795 17.0318 18.3444 23.3634Z" fill="#00EA91"/>
<path d="M61.4764 23.3087C58.9184 21.107 54.4877 22.6249 52.1492 19.8215C51.9174 19.548 51.78 19.3018 51.8077 19.0421C51.9718 17.401 58.1533 18.7138 61.3943 15.719C65.6333 11.7942 62.98 2.18051 64.8948 1.87959C65.0313 1.85231 65.141 1.89334 65.3328 1.96164C68.423 3.12411 65.3461 12.1634 69.2569 15.2539C71.4456 16.977 75.6025 16.6626 78.1051 18.8369C78.2559 18.96 78.461 19.1651 78.4466 19.4113C78.3789 20.6967 72.621 19.6711 69.3943 22.4062C64.8815 26.2352 66.8097 36.136 65.4969 36.1908C65.4692 36.1908 65.4148 36.1908 65.3184 36.136C63.0764 34.96 65.0179 26.3719 61.4764 23.3087Z" fill="#1A76F2"/>
<path d="M49.3328 51.2745C53.8456 47.6642 50.5226 37.1344 53.8313 36.2728C54.0097 36.2318 54.1738 36.1908 54.379 36.2318C56.9769 36.8472 53.1338 48.8267 57.8928 52.8472C61.7903 56.1292 70.2692 53.0933 70.6108 54.7754C70.6385 54.8711 70.6108 54.9531 70.5841 55.0626C70.0641 57.319 64.061 57.1685 60.6149 59.3565C53.3123 64.0062 55.6364 80.3613 53.4897 80.3613C53.4487 80.3613 53.4077 80.348 53.3256 80.3203C49.7154 79.227 53.1749 66.0164 47.0624 60.1634C43.1239 56.4027 35.9444 56.389 36.1223 54.4198C36.1223 54.3514 36.1495 54.2147 36.2864 53.9822C37.9821 51.1241 45.5582 54.3104 49.3328 51.2745Z" fill="#FFC700"/>
</g>
<defs>
<clipPath id="clip0_343_13851">
<rect width="77.9487" height="80" fill="white" transform="translate(0.525635 0.430054)"/>
</clipPath>
</defs>
</svg>
