<svg width="14" height="14" viewBox="0 0 15 15" fill="none" xmlns="http://www.w3.org/2000/svg">
<path d="M4.17932 4.59685C3.81078 4.90557 3.15983 5.19036 2.49453 5.24062C1.87709 5.28847 1.15437 5.14011 1.07539 5.36985C1.06342 5.40575 1.06581 5.44642 1.08975 5.49668C1.28598 5.93703 2.45385 5.75275 3.22206 6.17873C4.41145 6.83924 4.60529 8.97155 4.69863 10.0174C4.76565 10.7521 4.76804 11.8888 4.98342 11.9104C5.01453 11.9128 5.04086 11.8936 5.05283 11.884C5.30888 11.6782 5.43573 7.54283 6.11778 6.69088C6.28052 6.48745 6.52462 6.13806 6.97932 5.8748C7.82411 5.38421 8.85316 5.47036 8.87231 5.21668C8.8747 5.19754 8.86991 5.1736 8.8436 5.13293C8.56837 4.7237 7.52496 5.02044 6.92906 4.68539C5.78752 4.04403 5.50273 0.643342 5.43812 0.612237C5.39744 0.593086 5.3735 0.593086 5.34478 0.597878C4.80632 0.67206 5.49796 3.48882 4.17932 4.59685Z" fill="#00EA91"/>
<path d="M11.7278 4.58753C11.2802 4.20222 10.5048 4.46786 10.0955 3.97727C10.055 3.9294 10.0309 3.88633 10.0358 3.84086C10.0645 3.55368 11.1463 3.78343 11.7134 3.25932C12.4553 2.57248 11.9909 0.890092 12.326 0.837431C12.3499 0.832656 12.3691 0.839836 12.4027 0.85179C12.9435 1.05522 12.405 2.63709 13.0894 3.17794C13.4724 3.47948 14.1999 3.42445 14.6378 3.80496C14.6642 3.8265 14.7001 3.8624 14.6976 3.90548C14.6857 4.13043 13.6781 3.95094 13.1134 4.42958C12.3237 5.09966 12.6611 6.8323 12.4314 6.84189C12.4265 6.84189 12.417 6.84189 12.4002 6.8323C12.0078 6.6265 12.3476 5.12358 11.7278 4.58753Z" fill="#1A76F2"/>
<path d="M9.60245 9.48114C10.3922 8.84935 9.81066 7.00663 10.3897 6.85586C10.4209 6.84868 10.4496 6.8415 10.4855 6.84868C10.9402 6.95637 10.2676 9.05278 11.1005 9.75637C11.7825 10.3307 13.2663 9.79945 13.3261 10.0938C13.3309 10.1106 13.3261 10.1249 13.3214 10.1441C13.2304 10.5389 12.1799 10.5126 11.5768 10.8955C10.2989 11.7092 10.7056 14.5713 10.3299 14.5713C10.3227 14.5713 10.3156 14.569 10.3012 14.5642C9.6694 14.3728 10.2748 12.061 9.20512 11.0367C8.51589 10.3786 7.25948 10.3762 7.29061 10.0316C7.29061 10.0196 7.29538 9.99568 7.31932 9.95499C7.61607 9.45483 8.94189 10.0124 9.60245 9.48114Z" fill="#FFC700"/>
</svg>
