<svg width="24" height="24" viewBox="0 0 25 24" fill="none" xmlns="http://www.w3.org/2000/svg">
<path fill-rule="evenodd" clip-rule="evenodd" d="M5.07026 4.46978C5.36315 4.17689 5.83802 4.17689 6.13092 4.46978L20.13 18.4688C20.4229 18.7617 20.4229 19.2366 20.13 19.5295C19.8371 19.8224 19.3622 19.8224 19.0693 19.5295L5.07026 5.53044C4.77736 5.23755 4.77736 4.76268 5.07026 4.46978Z" fill="#3800B0"/>
<path fill-rule="evenodd" clip-rule="evenodd" d="M20.129 4.46978C20.4219 4.76268 20.4219 5.23755 20.129 5.53044L6.1299 19.5295C5.83701 19.8224 5.36214 19.8224 5.06924 19.5295C4.77635 19.2366 4.77635 18.7617 5.06924 18.4688L19.0683 4.46978C19.3612 4.17689 19.8361 4.17689 20.129 4.46978Z" fill="#3800B0"/>
</svg>
